<svg xmlns="http://www.w3.org/2000/svg" xmlns:xlink="http://www.w3.org/1999/xlink" contentStyleType="text/css" height="453px" preserveAspectRatio="none" style="width:465px;height:453px;background:#FFFFFF;" version="1.1" viewBox="0 0 465 453" width="465px" zoomAndPan="magnify"><defs/><g><!--class ABSCOSpectroscopy4D--><g id="elem_ABSCOSpectroscopy4D"><rect codeLine="1" fill="#F1F1F1" height="253.8594" id="ABSCOSpectroscopy4D" rx="2.5" ry="2.5" style="stroke:#181818;stroke-width:0.5;" width="451.5166" x="7" y="7"/><ellipse cx="150.9717" cy="23" fill="#F1F1F1" rx="11" ry="11" style="stroke:#181818;stroke-width:1;"/><path d="M150.7051,24.063 Q148.854,23.3574 148.1982,22.5813 Q147.5425,21.8052 147.5425,20.4937 Q147.5425,18.8086 148.6216,17.8457 Q149.7007,16.8828 151.585,16.8828 Q152.4399,16.8828 153.2949,17.0779 Q154.1499,17.2729 154.9883,17.6548 L154.9883,20.0454 Q154.1997,19.4893 153.3862,19.1987 Q152.5728,18.9082 151.7759,18.9082 Q150.8877,18.9082 150.4146,19.2651 Q149.9414,19.6221 149.9414,20.2861 Q149.9414,20.8008 150.2859,21.137 Q150.6304,21.4731 151.7261,21.8799 L152.7803,22.2783 Q154.2744,22.8262 154.98,23.731 Q155.6855,24.6357 155.6855,26.0137 Q155.6855,27.8896 154.5774,28.8152 Q153.4692,29.7407 151.228,29.7407 Q150.3066,29.7407 149.3811,29.5208 Q148.4556,29.3008 147.5923,28.8691 L147.5923,26.3374 Q148.5718,27.0347 149.489,27.375 Q150.4063,27.7153 151.3027,27.7153 Q152.2075,27.7153 152.7056,27.3044 Q153.2036,26.8936 153.2036,26.1548 Q153.2036,25.5986 152.8716,25.1794 Q152.5396,24.7603 151.9087,24.5195 Z " fill="#000000"/><text fill="#000000" font-family="sans-serif" font-size="14" lengthAdjust="spacing" textLength="155.0732" x="171.4717" y="28.291">ABSCOSpectroscopy4D</text><line style="stroke:#181818;stroke-width:0.5;" x1="8" x2="457.5166" y1="39" y2="39"/><ellipse cx="18" cy="52.7441" fill="none" rx="3" ry="3" style="stroke:#038048;stroke-width:1;"/><text fill="#000000" font-family="sans-serif" font-size="14" lengthAdjust="spacing" textLength="114.1602" x="27" y="56.5352">file_name: String</text><ellipse cx="18" cy="69.2324" fill="none" rx="3" ry="3" style="stroke:#038048;stroke-width:1;"/><text fill="#000000" font-family="sans-serif" font-size="14" lengthAdjust="spacing" textLength="116.7168" x="27" y="73.0234">gas_name: String</text><line style="stroke:#181818;stroke-width:1;stroke-dasharray:1.0,2.0;" x1="8" x2="457.5166" y1="79.9766" y2="79.9766"/><ellipse cx="18" cy="93.7207" fill="none" rx="3" ry="3" style="stroke:#038048;stroke-width:1;"/><text fill="#000000" font-family="sans-serif" font-size="14" lengthAdjust="spacing" textLength="107.0645" x="27" y="97.5117">scale_factor: T1</text><line style="stroke:#181818;stroke-width:1;stroke-dasharray:1.0,2.0;" x1="8" x2="457.5166" y1="104.4648" y2="104.4648"/><ellipse cx="18" cy="118.209" fill="none" rx="3" ry="3" style="stroke:#038048;stroke-width:1;"/><text fill="#000000" font-family="sans-serif" font-size="14" lengthAdjust="spacing" textLength="100.9326" x="27" y="122">ww: Vector{T2}</text><ellipse cx="18" cy="134.6973" fill="none" rx="3" ry="3" style="stroke:#038048;stroke-width:1;"/><text fill="#000000" font-family="sans-serif" font-size="14" lengthAdjust="spacing" textLength="425.5166" x="27" y="138.4883">ww_unit: Union{Unitful.LengthUnits, Unitful.WavenumberUnits}</text><ellipse cx="18" cy="151.1855" fill="none" rx="3" ry="3" style="stroke:#038048;stroke-width:1;"/><text fill="#000000" font-family="sans-serif" font-size="14" lengthAdjust="spacing" textLength="180.3115" x="27" y="154.9766">temperatures: Array{T3, 2}</text><ellipse cx="18" cy="167.6738" fill="none" rx="3" ry="3" style="stroke:#038048;stroke-width:1;"/><text fill="#000000" font-family="sans-serif" font-size="14" lengthAdjust="spacing" textLength="305.3271" x="27" y="171.4648">temperatures_unit: Unitful.TemperatureUnits</text><ellipse cx="18" cy="184.1621" fill="none" rx="3" ry="3" style="stroke:#038048;stroke-width:1;"/><text fill="#000000" font-family="sans-serif" font-size="14" lengthAdjust="spacing" textLength="145.3252" x="27" y="187.9531">pressures: Vector{T3}</text><ellipse cx="18" cy="200.6504" fill="none" rx="3" ry="3" style="stroke:#038048;stroke-width:1;"/><text fill="#000000" font-family="sans-serif" font-size="14" lengthAdjust="spacing" textLength="251.0361" x="27" y="204.4414">pressures_unit: Unitful.PressureUnits</text><ellipse cx="18" cy="217.1387" fill="none" rx="3" ry="3" style="stroke:#038048;stroke-width:1;"/><text fill="#000000" font-family="sans-serif" font-size="14" lengthAdjust="spacing" textLength="189.2393" x="27" y="220.9297">broadener_vmrs: Vector{T3}</text><ellipse cx="18" cy="233.627" fill="none" rx="3" ry="3" style="stroke:#038048;stroke-width:1;"/><text fill="#000000" font-family="sans-serif" font-size="14" lengthAdjust="spacing" textLength="180.9951" x="27" y="237.418">cross_section: Array{T4, 4}</text><ellipse cx="18" cy="250.1152" fill="none" rx="3" ry="3" style="stroke:#038048;stroke-width:1;"/><text fill="#000000" font-family="sans-serif" font-size="14" lengthAdjust="spacing" textLength="249.6826" x="27" y="253.9063">cross_section_unit: Unitful.AreaUnits</text></g><!--class GasAbsorber--><g id="elem_GasAbsorber"><rect codeLine="18" fill="#F1F1F1" height="121.9531" id="GasAbsorber" rx="2.5" ry="2.5" style="stroke:#181818;stroke-width:0.5;" width="278.041" x="93.76" y="324.86"/><ellipse cx="184.9001" cy="340.86" fill="#F1F1F1" rx="11" ry="11" style="stroke:#181818;stroke-width:1;"/><path d="M184.6335,341.923 Q182.7825,341.2174 182.1267,340.4413 Q181.4709,339.6652 181.4709,338.3537 Q181.4709,336.6686 182.55,335.7057 Q183.6291,334.7428 185.5134,334.7428 Q186.3684,334.7428 187.2234,334.9379 Q188.0784,335.1329 188.9167,335.5148 L188.9167,337.9054 Q188.1282,337.3493 187.3147,337.0587 Q186.5012,336.7682 185.7043,336.7682 Q184.8162,336.7682 184.343,337.1251 Q183.8699,337.4821 183.8699,338.1461 Q183.8699,338.6608 184.2143,338.997 Q184.5588,339.3331 185.6545,339.7399 L186.7087,340.1383 Q188.2029,340.6862 188.9084,341.591 Q189.614,342.4957 189.614,343.8737 Q189.614,345.7496 188.5058,346.6752 Q187.3977,347.6007 185.1565,347.6007 Q184.2351,347.6007 183.3096,347.3808 Q182.384,347.1608 181.5207,346.7291 L181.5207,344.1974 Q182.5002,344.8947 183.4175,345.235 Q184.3347,345.5753 185.2312,345.5753 Q186.136,345.5753 186.634,345.1644 Q187.1321,344.7536 187.1321,344.0148 Q187.1321,343.4586 186.8,343.0394 Q186.468,342.6203 185.8371,342.3795 Z " fill="#000000"/><text fill="#000000" font-family="sans-serif" font-size="14" lengthAdjust="spacing" textLength="87.2607" x="205.4001" y="346.151">GasAbsorber</text><line style="stroke:#181818;stroke-width:0.5;" x1="94.76" x2="370.801" y1="356.86" y2="356.86"/><ellipse cx="104.76" cy="370.6041" fill="none" rx="3" ry="3" style="stroke:#038048;stroke-width:1;"/><text fill="#000000" font-family="sans-serif" font-size="14" lengthAdjust="spacing" textLength="116.7168" x="113.76" y="374.3952">gas_name: String</text><line style="stroke:#181818;stroke-width:1;stroke-dasharray:1.0,2.0;" x1="94.76" x2="370.801" y1="381.3483" y2="381.3483"/><ellipse cx="104.76" cy="395.0924" fill="none" rx="3" ry="3" style="stroke:#038048;stroke-width:1;"/><text fill="#000000" font-family="sans-serif" font-size="14" lengthAdjust="spacing" textLength="245.0068" x="113.76" y="398.8834">spectroscopy: AbstractSpectroscopy</text><line style="stroke:#181818;stroke-width:1;stroke-dasharray:1.0,2.0;" x1="94.76" x2="370.801" y1="405.8366" y2="405.8366"/><ellipse cx="104.76" cy="419.5807" fill="none" rx="3" ry="3" style="stroke:#038048;stroke-width:1;"/><text fill="#000000" font-family="sans-serif" font-size="14" lengthAdjust="spacing" textLength="141.627" x="113.76" y="423.3717">vmr_levels: Vector{T}</text><ellipse cx="104.76" cy="436.069" fill="none" rx="3" ry="3" style="stroke:#038048;stroke-width:1;"/><text fill="#000000" font-family="sans-serif" font-size="14" lengthAdjust="spacing" textLength="252.041" x="113.76" y="439.86">vmr_unit: Unitful.DimensionlessUnits</text></g><!--link ABSCOSpectroscopy4D to GasAbsorber--><g id="link_ABSCOSpectroscopy4D_GasAbsorber"><path codeLine="28" d="M349.56,261.25 C402,326.6 450.87,392.86 384.76,392.86 " fill="none" id="ABSCOSpectroscopy4D-to-GasAbsorber" style="stroke:#181818;stroke-width:1;"/><polygon fill="#181818" points="372.76,392.86,378.76,396.86,384.76,392.86,378.76,388.86,372.76,392.86" style="stroke:#181818;stroke-width:1;"/></g><!--SRC=[ZL8zRuCm4Dtv5JUtIQGccRpHHkfIgPMWxOWClL0aCEZE44M8_zuBWSIa3F5WoU-TtxtxO4jrOi5_3bxUWmeJIoKdPNNSxbeFv3p2FiinChf01O6bpAG3dch-3wzM0yk9bczxdTYI58HFK_PmKF259wuDrzq5Z6gJMGMV9YjDAxVTr_dg3KrgVqylNi08Vki6JLt4I3qnIbWiAYHjQq9Mu1FfOnjk5h2U2xXcwoN3AzLh3ZygYUIptkXuqzroDr8V0-xgn5Jg7pH8KLFGd5WYdUU81PRgB-Qt2zZEHjoaz0drDLtdUNmUxAjcF-QIf5FjVODpba1SnA8ZGtHNOnelrKGvDfWxDNKEDxMvomeqBFPpwT34hpUpWh1SFhWLAEMwy_u0]--></g></svg>