<?xml version="1.0" encoding="UTF-8" standalone="no"?>
<!-- Created with Inkscape (http://www.inkscape.org/) -->

<svg
   version="1.1"
   id="svg1"
   width="680.63464"
   height="168.52133"
   viewBox="0 0 680.63464 168.52133"
   sodipodi:docname="met-p-grid.pdf"
   xmlns:inkscape="http://www.inkscape.org/namespaces/inkscape"
   xmlns:sodipodi="http://sodipodi.sourceforge.net/DTD/sodipodi-0.dtd"
   xmlns="http://www.w3.org/2000/svg"
   xmlns:svg="http://www.w3.org/2000/svg">
  <defs
     id="defs1" />
  <sodipodi:namedview
     id="namedview1"
     pagecolor="#ffffff"
     bordercolor="#000000"
     borderopacity="0.25"
     inkscape:showpageshadow="2"
     inkscape:pageopacity="0.0"
     inkscape:pagecheckerboard="0"
     inkscape:deskcolor="#d1d1d1">
    <inkscape:page
       x="0"
       y="0"
       inkscape:label="1"
       id="page1"
       width="680.63464"
       height="168.52133"
       margin="0"
       bleed="0" />
  </sodipodi:namedview>
  <g
     id="g1"
     inkscape:groupmode="layer"
     inkscape:label="1">
    <path
       id="path1"
       d="M 0,120.47392 V 92.1271 h 141.73404 v 28.34682 z"
       style="fill:#bfbfbf;fill-opacity:1;fill-rule:nonzero;stroke:#000000;stroke-width:0.3985;stroke-linecap:butt;stroke-linejoin:miter;stroke-miterlimit:10;stroke-dasharray:0.3985, 1.99255;stroke-dashoffset:0;stroke-opacity:1"
       transform="matrix(1.3333333,0,0,-1.3333333,188.76533,191.97733)" />
    <path
       id="path2"
       d="m 0.81003125,-7.2065313 v 7.19531255 H 1.5600313 V -7.2065313 Z m 2.39062505,3.703125 c 0.140625,-0.082031 0.28125,-0.1875 0.421875,-0.2578125 0.3398437,-0.1875 0.7148437,-0.2578125 1.1132812,-0.2578125 0.5976563,0 0.8554688,0.6796875 0.8554688,1.1953125 0,0.1289063 -0.011719,0.2578125 -0.011719,0.375 -1.0078125,0 -2.765625,0.2226563 -2.765625,1.3007813 0,0.6328125 0.4335938,1.25390625 1.125,1.25390625 0.5742188,0 1.2421875,-0.12890625 1.6640625,-0.46875 v 0.3515625 h 0.75 V -2.7885625 c 0,-0.8320313 -0.421875,-1.7460938 -1.5117187,-1.8164063 H 4.7358125 c -0.5039062,0 -0.9492187,0.1054688 -1.40625,0.328125 -0.070312,0.035156 -0.1875,0.070312 -0.1875,0.1875 0,0.1992188 0.046875,0.3867188 0.058594,0.5859375 z m 2.3789062,1.5585938 v 0.6445312 c 0,0.58593755 -0.5976562,0.79687505 -1.1015625,0.79687505 -0.421875,0 -0.9375,-0.19921875 -0.9375,-0.65625005 0.011719,-0.4921875 0.796875,-0.65625 1.1601563,-0.703125 0.2929687,-0.046875 0.5859375,-0.082031 0.8789062,-0.082031 z m 1.4472656,-2.484375 c 0.1171875,0.3515625 0.3046875,0.7148437 0.46875,1.0664062 0.421875,0.984375 0.84375,1.9570313 1.2890625,2.92968755 l 0.1054688,0.2578125 c 0.023437,0.046875 0.046875,0.09375 0.058594,0.140625 v 0.0234375 c 0,0.046875 -0.023437,0.09375 -0.035156,0.1171875 L 8.8080781,0.36378125 C 8.6440156,0.76221875 8.4447969,1.4653437 8.0463594,1.4653437 c -0.2695313,0 -0.5390625,-0.070312 -0.796875,-0.1640625 0.011719,0.3515625 -0.011719,0.6328125 0.1875,0.6796875 0.1875,0.023437 0.3867187,0.046875 0.5742187,0.046875 0.84375,0 1.1484375,-1.10156245 1.4296875,-1.7929687 l 0.6796874,-1.7109375 c 0.351563,-0.8554688 0.714844,-1.6992188 1.054688,-2.5546875 0.04687,-0.1289063 0.117187,-0.2578125 0.152343,-0.3984375 h -0.632812 c -0.1875,0 -0.375,0.6328125 -0.503906,0.9609375 -0.3164066,0.796875 -0.6093754,1.59375 -0.8554691,2.4257812 -0.035156,0.1757813 -0.082031,0.35156255 -0.082031,0.53906255 C 9.2299531,-0.608875 9.2299531,-0.71434375 9.2065156,-0.8198125 8.9721406,-1.9565313 8.3862031,-3.1518438 7.9408906,-4.1362188 l -0.082031,-0.1875 C 7.8119844,-4.40575 7.8002656,-4.4291875 7.6947969,-4.4291875 Z m 8.2031249,3.3632812 c -0.480469,0.30468755 -0.890625,0.56250005 -1.464844,0.56250005 -0.785156,0 -1.523437,-0.69140625 -1.523437,-1.68750005 h 3.09375 c 0,-0.6796875 -0.105469,-1.4296875 -0.597656,-1.9453125 -0.304688,-0.3046875 -0.738282,-0.46875 -1.171875,-0.46875 -0.539063,0 -1.042969,0.2578125 -1.394532,0.65625 -0.433593,0.46875 -0.621093,1.1015625 -0.621093,1.7226563 v 0.058594 c 0.01172,1.1601563 0.914062,2.27343755 2.167968,2.27343755 0.515625,0 1.007813,-0.15234375 1.429688,-0.421875 0.07031,-0.046875 0.152344,-0.0703125 0.152344,-0.17578125 0,-0.1875 -0.05859,-0.38671875 -0.07031,-0.5742188 z m -2.929687,-1.6757812 c 0.140625,-0.609375 0.5625,-1.2421875 1.265625,-1.2421875 0.703125,0 1.125,0.5859375 1.195312,1.2421875 z m 4.860351,-0.84375 v -0.9023438 h -0.703125 v 4.47656255 h 0.738281 V -2.0034063 c 0,-0.75 0.269532,-1.4179687 1.125,-1.7578125 0.175782,-0.070312 0.375,-0.1054687 0.574219,-0.1054687 V -4.546375 c -0.644531,0 -1.5,0.4101562 -1.734375,0.9609375 z m 6.09961,-1.921875 c 0.445312,-0.070312 0.867187,-0.035156 1.289062,-0.2460938 v 5.15625005 h -1.242187 v 0.5859375 h 3.269531 v -0.5859375 H 25.334445 V -6.7495 h -0.09375 c -0.164062,0 -0.363281,0.2226562 -0.527343,0.328125 -0.386719,0.2109375 -0.855469,0.3164062 -1.289063,0.3164062 h -0.05859 c -0.09375,0 -0.105468,0.023437 -0.105468,0.1171875 z m 0,0"
       style="fill:#000000;fill-opacity:1;fill-rule:nonzero;stroke:none"
       aria-label="layer1"
       transform="matrix(1.3333333,0,0,1.3333333,265.02933,53.749333)" />
    <path
       id="path3"
       d="M 0,120.47392 H 141.73404"
       style="fill:none;stroke:#000000;stroke-width:0.79701;stroke-linecap:butt;stroke-linejoin:miter;stroke-miterlimit:10;stroke-dasharray:none;stroke-opacity:1"
       transform="matrix(1.3333333,0,0,-1.3333333,188.76533,191.97733)" />
    <g
       id="g3"
       aria-label="p&#10;1"
       transform="matrix(1.3333333,0,0,1.3333333,163.63467,33.008)">
      <path
         id="path4"
         d="m 1.6978281,-0.45717187 c 0.140625,0.1640625 0.5039063,0.5625 1.2070313,0.5625 1.1835937,0 2.4257812,-1.37109373 2.4257812,-3.02343753 0,-0.84375 -0.3867187,-1.6171875 -1.171875,-1.6171875 -0.609375,0 -1.2890625,0.2460938 -1.7578125,0.5976563 l 0.09375,-0.4804688 H 1.7564219 L 0.40876563,1.9334531 H 1.1822031 Z M 2.2720469,-3.1642031 c 0.035156,-0.1757813 0.046875,-0.1875 0.1640625,-0.3046875 0.4453125,-0.375 0.84375,-0.421875 1.0429687,-0.421875 0.609375,0 1.0429688,0.5039062 1.0429688,1.2539062 0,1.125 -0.9492188,2.13281253 -1.8632813,2.13281253 -0.6796875,0 -0.8203125,-0.60937503 -0.8203125,-0.65625003 0,0 0.035156,-0.1171875 0.035156,-0.140625 z m 0,0"
         style="fill:#000000;fill-opacity:1;fill-rule:nonzero;stroke:none" />
      <path
         id="path5"
         d="M 7.3843516,-3.2286562 H 7.2320078 c -0.4570312,0.421875 -1.03125,0.4453125 -1.4414062,0.4570312 v 0.4453125 C 6.0601328,-2.3380312 6.4116953,-2.34975 6.7515391,-2.490375 V 1.0604063 H 5.8257578 V 1.494 h 2.484375 V 1.0604063 H 7.3843516 Z m 0,0"
         style="fill:#000000;fill-opacity:1;fill-rule:nonzero;stroke:none" />
    </g>
    <path
       id="path6"
       d="M 0,92.1271 H 141.73404"
       style="fill:none;stroke:#000000;stroke-width:0.79701;stroke-linecap:butt;stroke-linejoin:miter;stroke-miterlimit:10;stroke-dasharray:none;stroke-opacity:1"
       transform="matrix(1.3333333,0,0,-1.3333333,188.76533,191.97733)" />
    <g
       id="g6"
       aria-label="p&#10;2"
       transform="matrix(1.3333333,0,0,1.3333333,163.63467,70.802667)">
      <path
         id="path7"
         d="m 1.6978281,-0.45844531 c 0.140625,0.1640625 0.5039063,0.5625 1.2070313,0.5625 1.1835937,0 2.4257812,-1.37109379 2.4257812,-3.02343749 0,-0.84375 -0.3867187,-1.6171875 -1.171875,-1.6171875 -0.609375,0 -1.2890625,0.2460937 -1.7578125,0.5976562 l 0.09375,-0.4804687 H 1.7564219 L 0.40876563,1.9321797 H 1.1822031 Z M 2.2720469,-3.1654766 c 0.035156,-0.1757812 0.046875,-0.1875 0.1640625,-0.3046875 0.4453125,-0.375 0.84375,-0.421875 1.0429687,-0.421875 0.609375,0 1.0429688,0.5039063 1.0429688,1.2539063 0,1.125 -0.9492188,2.13281249 -1.8632813,2.13281249 -0.6796875,0 -0.8203125,-0.60937499 -0.8203125,-0.65624999 0,0 0.035156,-0.1171875 0.035156,-0.140625 z m 0,0"
         style="fill:#000000;fill-opacity:1;fill-rule:nonzero;stroke:none" />
      <path
         id="path8"
         d="m 7.1148203,0.95659375 c -0.082031,0 -0.1640625,0.0117188 -0.2460937,0.0117188 H 6.0718516 L 7.1499766,0.007375 c 0.1289062,-0.10546875 0.46875,-0.36328125 0.609375,-0.48046875 0.3046875,-0.28125 0.7148437,-0.64453125 0.7148437,-1.24218745 0,-0.796875 -0.5859375,-1.5117188 -1.5820312,-1.5117188 -0.7382813,0 -1.2070313,0.3984375 -1.4414063,1.1132813 l 0.328125,0.4101562 C 5.9429453,-2.2895 6.1890391,-2.7465312 6.7866953,-2.7465312 c 0.5859375,0 1.03125,0.4101562 1.03125,1.0429687 0,0.5742188 -0.3398437,0.90234375 -0.75,1.30078125 C 6.9273203,-0.26215625 6.5523203,0.05425 6.3999766,0.194875 6.2007578,0.37065625 5.7202891,0.83940625 5.5210703,1.0151875 v 0.4804688 h 2.953125 V 0.95659375 Z m 0,0"
         style="fill:#000000;fill-opacity:1;fill-rule:nonzero;stroke:none" />
    </g>
    <path
       id="path9"
       d="M 0,63.7803 H 141.73404"
       style="fill:none;stroke:#000000;stroke-width:0.79701;stroke-linecap:butt;stroke-linejoin:miter;stroke-miterlimit:10;stroke-dasharray:none;stroke-opacity:1"
       transform="matrix(1.3333333,0,0,-1.3333333,188.76533,191.97733)" />
    <g
       id="g9"
       aria-label="p&#10;3"
       transform="matrix(1.3333333,0,0,1.3333333,163.63467,108.59867)">
      <path
         id="path10"
         d="m 1.6978281,-0.45778906 c 0.140625,0.1640625 0.5039063,0.5625 1.2070313,0.5625 1.1835937,0 2.4257812,-1.37109374 2.4257812,-3.02343754 0,-0.84375 -0.3867187,-1.6171875 -1.171875,-1.6171875 -0.609375,0 -1.2890625,0.2460938 -1.7578125,0.5976563 l 0.09375,-0.4804688 H 1.7564219 L 0.40876563,1.9328359 H 1.1822031 Z M 2.2720469,-3.1648203 c 0.035156,-0.1757813 0.046875,-0.1875 0.1640625,-0.3046875 0.4453125,-0.375 0.84375,-0.421875 1.0429687,-0.421875 0.609375,0 1.0429688,0.5039062 1.0429688,1.2539062 0,1.125 -0.9492188,2.13281254 -1.8632813,2.13281254 -0.6796875,0 -0.8203125,-0.60937504 -0.8203125,-0.65625004 0,0 0.035156,-0.1171875 0.035156,-0.140625 z m 0,0"
         style="fill:#000000;fill-opacity:1;fill-rule:nonzero;stroke:none" />
      <path
         id="path11"
         d="m 5.8491953,-2.0808359 c 0.28125,-0.5625 0.7851563,-0.7148438 1.1132813,-0.7148438 0.4101562,0 0.7265625,0.234375 0.7265625,0.6328125 0,0.375 -0.2578125,0.8203125 -0.7851563,0.9140625 -0.035156,0.011719 -0.058594,0.011719 -0.5273437,0.046875 v 0.45703126 h 0.5507812 c 0.65625,0 0.9023438,0.52734375 0.9023438,0.9609375 0,0.55078125 -0.328125,0.96093754 -0.8789063,0.96093754 -0.4921875,0 -1.0546875,-0.23437504 -1.40625,-0.67968754 l -0.09375,0.45703125 C 5.8609141,1.3996328 6.4234141,1.6340078 6.9624766,1.6340078 c 0.9140625,0 1.5703125,-0.67968749 1.5703125,-1.40624999 0,-0.57421875 -0.4570313,-1.03125 -1.0078125,-1.1953125 0.5273437,-0.26953121 0.796875,-0.73828121 0.796875,-1.19531251 0,-0.5859375 -0.5976563,-1.0664062 -1.3476563,-1.0664062 -0.609375,0 -1.125,0.328125 -1.4179687,0.7382812 z m 0,0"
         style="fill:#000000;fill-opacity:1;fill-rule:nonzero;stroke:none" />
    </g>
    <path
       id="path12"
       d="M 0,35.43349 H 141.73404"
       style="fill:none;stroke:#000000;stroke-width:0.79701;stroke-linecap:butt;stroke-linejoin:miter;stroke-miterlimit:10;stroke-dasharray:none;stroke-opacity:1"
       transform="matrix(1.3333333,0,0,-1.3333333,188.76533,191.97733)" />
    <g
       id="g12"
       aria-label="p&#10;4"
       transform="matrix(1.3333333,0,0,1.3333333,163.63467,146.39333)">
      <path
         id="path13"
         d="m 1.6978281,-0.45613281 c 0.140625,0.1640625 0.5039063,0.5625 1.2070313,0.5625 1.1835937,0 2.4257812,-1.37109379 2.4257812,-3.02343749 0,-0.84375 -0.3867187,-1.6171875 -1.171875,-1.6171875 -0.609375,0 -1.2890625,0.2460937 -1.7578125,0.5976562 l 0.09375,-0.4804687 H 1.7564219 L 0.40876563,1.9344922 H 1.1822031 Z M 2.2720469,-3.1631641 c 0.035156,-0.1757812 0.046875,-0.1875 0.1640625,-0.3046875 0.4453125,-0.375 0.84375,-0.421875 1.0429687,-0.421875 0.609375,0 1.0429688,0.5039063 1.0429688,1.2539063 0,1.125 -0.9492188,2.13281249 -1.8632813,2.13281249 -0.6796875,0 -0.8203125,-0.60937499 -0.8203125,-0.65624999 0,0 0.035156,-0.1171875 0.035156,-0.140625 z m 0,0"
         style="fill:#000000;fill-opacity:1;fill-rule:nonzero;stroke:none" />
      <path
         id="path14"
         d="m 7.9116953,0.33488281 h 0.7265625 v -0.46875 H 7.9116953 V -3.0752734 H 7.2202891 l -1.8632813,2.94140621 v 0.46875 H 7.3023203 V 1.4950391 h 0.609375 z m -1.96875,-0.46875 c 0.2109375,-0.328125 1.4179688,-2.17968751 1.4179688,-2.60156251 v 2.60156251 z m 0,0"
         style="fill:#000000;fill-opacity:1;fill-rule:nonzero;stroke:none" />
    </g>
    <path
       id="path15"
       d="M 226.77448,137.48218 H 368.50851"
       style="fill:none;stroke:#000000;stroke-width:0.79701;stroke-linecap:butt;stroke-linejoin:miter;stroke-miterlimit:10;stroke-dasharray:none;stroke-opacity:1"
       transform="matrix(1.3333333,0,0,-1.3333333,188.76533,191.97733)" />
    <g
       id="g15"
       aria-label="p&#10;1"
       transform="matrix(1.3333333,0,0,1.3333333,465.996,10.330667)">
      <path
         id="path16"
         d="m 1.6992891,-0.45600781 c 0.140625,0.1640625 0.5039062,0.5625 1.2070312,0.5625 1.1835938,0 2.4257813,-1.37109379 2.4257813,-3.02343749 0,-0.84375 -0.3867188,-1.6171875 -1.171875,-1.6171875 -0.609375,0 -1.2890625,0.2460937 -1.7578125,0.5976562 l 0.09375,-0.4804687 H 1.7578828 L 0.41022656,1.9346172 H 1.1836641 Z M 2.2735078,-3.1630391 c 0.035156,-0.1757812 0.046875,-0.1875 0.1640625,-0.3046875 0.4453125,-0.375 0.84375,-0.421875 1.0429688,-0.421875 0.609375,0 1.0429687,0.5039063 1.0429687,1.2539063 0,1.125 -0.9492187,2.13281249 -1.8632812,2.13281249 -0.6796875,0 -0.8203125,-0.60937499 -0.8203125,-0.65624999 0,0 0.035156,-0.1171875 0.035156,-0.140625 z m 0,0"
         style="fill:#000000;fill-opacity:1;fill-rule:nonzero;stroke:none" />
      <path
         id="path17"
         d="M 7.3858125,-3.2274922 H 7.2334688 c -0.4570313,0.421875 -1.03125,0.4453125 -1.4414063,0.4570313 v 0.4453125 C 6.0615938,-2.3368672 6.4131563,-2.3485859 6.753,-2.4892109 V 1.0615703 H 5.8272188 v 0.4335938 h 2.484375 V 1.0615703 H 7.3858125 Z m 0,0"
         style="fill:#000000;fill-opacity:1;fill-rule:nonzero;stroke:none" />
    </g>
    <path
       id="path18"
       d="M 226.77448,114.80464 H 368.50851"
       style="fill:none;stroke:#000000;stroke-width:0.79701;stroke-linecap:butt;stroke-linejoin:miter;stroke-miterlimit:10;stroke-dasharray:none;stroke-opacity:1"
       transform="matrix(1.3333333,0,0,-1.3333333,188.76533,191.97733)" />
    <g
       id="g18"
       aria-label="p&#10;2"
       transform="matrix(1.3333333,0,0,1.3333333,465.996,40.566667)">
      <path
         id="path19"
         d="m 1.6992891,-0.45722656 c 0.140625,0.1640625 0.5039062,0.5625 1.2070312,0.5625 1.1835938,0 2.4257813,-1.37109374 2.4257813,-3.02343754 0,-0.84375 -0.3867188,-1.6171875 -1.171875,-1.6171875 -0.609375,0 -1.2890625,0.2460938 -1.7578125,0.5976563 l 0.09375,-0.4804688 H 1.7578828 L 0.41022656,1.9333984 H 1.1836641 Z M 2.2735078,-3.1642578 c 0.035156,-0.1757813 0.046875,-0.1875 0.1640625,-0.3046875 0.4453125,-0.375 0.84375,-0.421875 1.0429688,-0.421875 0.609375,0 1.0429687,0.5039062 1.0429687,1.2539062 0,1.125 -0.9492187,2.13281254 -1.8632812,2.13281254 -0.6796875,0 -0.8203125,-0.60937504 -0.8203125,-0.65625004 0,0 0.035156,-0.1171875 0.035156,-0.140625 z m 0,0"
         style="fill:#000000;fill-opacity:1;fill-rule:nonzero;stroke:none" />
      <path
         id="path20"
         d="m 7.1162813,0.95488281 c -0.082031,0 -0.1640625,0.0117188 -0.2460938,0.0117188 h -0.796875 l 1.078125,-0.9609375 c 0.1289063,-0.10546875 0.46875,-0.36328125 0.609375,-0.48046875 0.3046875,-0.28125 0.7148438,-0.64453126 0.7148438,-1.24218746 0,-0.796875 -0.5859375,-1.5117187 -1.5820313,-1.5117187 -0.7382812,0 -1.2070312,0.3984375 -1.4414062,1.1132812 l 0.328125,0.4101563 C 5.9444063,-2.2912109 6.1905,-2.7482422 6.7881563,-2.7482422 c 0.5859375,0 1.03125,0.4101563 1.03125,1.0429688 0,0.5742187 -0.3398438,0.90234371 -0.75,1.30078121 -0.140625,0.140625 -0.515625,0.45703125 -0.6679688,0.59765625 C 6.2022188,0.36894531 5.72175,0.83769531 5.5225313,1.0134766 v 0.4804687 h 2.953125 V 0.95488281 Z m 0,0"
         style="fill:#000000;fill-opacity:1;fill-rule:nonzero;stroke:none" />
    </g>
    <path
       id="path21"
       d="M 226.77448,92.1271 H 368.50851"
       style="fill:none;stroke:#000000;stroke-width:0.79701;stroke-linecap:butt;stroke-linejoin:miter;stroke-miterlimit:10;stroke-dasharray:none;stroke-opacity:1"
       transform="matrix(1.3333333,0,0,-1.3333333,188.76533,191.97733)" />
    <g
       id="g21"
       aria-label="p&#10;3"
       transform="matrix(1.3333333,0,0,1.3333333,465.996,70.802667)">
      <path
         id="path22"
         d="m 1.6992891,-0.45844531 c 0.140625,0.1640625 0.5039062,0.5625 1.2070312,0.5625 1.1835938,0 2.4257813,-1.37109379 2.4257813,-3.02343749 0,-0.84375 -0.3867188,-1.6171875 -1.171875,-1.6171875 -0.609375,0 -1.2890625,0.2460937 -1.7578125,0.5976562 l 0.09375,-0.4804687 H 1.7578828 L 0.41022656,1.9321797 H 1.1836641 Z M 2.2735078,-3.1654766 c 0.035156,-0.1757812 0.046875,-0.1875 0.1640625,-0.3046875 0.4453125,-0.375 0.84375,-0.421875 1.0429688,-0.421875 0.609375,0 1.0429687,0.5039063 1.0429687,1.2539063 0,1.125 -0.9492187,2.13281249 -1.8632812,2.13281249 -0.6796875,0 -0.8203125,-0.60937499 -0.8203125,-0.65624999 0,0 0.035156,-0.1171875 0.035156,-0.140625 z m 0,0"
         style="fill:#000000;fill-opacity:1;fill-rule:nonzero;stroke:none" />
      <path
         id="path23"
         d="m 5.8506563,-2.0785625 c 0.28125,-0.5625 0.7851562,-0.7148437 1.1132812,-0.7148437 0.4101563,0 0.7265625,0.234375 0.7265625,0.6328125 0,0.375 -0.2578125,0.8203125 -0.7851562,0.9140625 -0.035156,0.011719 -0.058594,0.011719 -0.5273438,0.046875 v 0.4570312 h 0.5507813 c 0.65625,0 0.9023437,0.52734375 0.9023437,0.9609375 0,0.55078125 -0.328125,0.9609375 -0.8789062,0.9609375 -0.4921875,0 -1.0546875,-0.234375 -1.40625,-0.6796875 l -0.09375,0.45703125 C 5.862375,1.4019063 6.424875,1.6362813 6.9639375,1.6362813 7.878,1.6362813 8.53425,0.95659375 8.53425,0.23003125 c 0,-0.57421875 -0.4570312,-1.03125 -1.0078125,-1.1953125 0.5273438,-0.26953125 0.796875,-0.73828125 0.796875,-1.19531245 0,-0.5859375 -0.5976562,-1.0664063 -1.3476562,-1.0664063 -0.609375,0 -1.125,0.328125 -1.4179688,0.7382813 z m 0,0"
         style="fill:#000000;fill-opacity:1;fill-rule:nonzero;stroke:none" />
    </g>
    <path
       id="path24"
       d="M 226.77448,69.44957 H 368.50851"
       style="fill:none;stroke:#000000;stroke-width:0.79701;stroke-linecap:butt;stroke-linejoin:miter;stroke-miterlimit:10;stroke-dasharray:none;stroke-opacity:1"
       transform="matrix(1.3333333,0,0,-1.3333333,188.76533,191.97733)" />
    <g
       id="g24"
       aria-label="p&#10;4"
       transform="matrix(1.3333333,0,0,1.3333333,465.996,101.04)">
      <path
         id="path25"
         d="m 1.6992891,-0.45773437 c 0.140625,0.1640625 0.5039062,0.5625 1.2070312,0.5625 1.1835938,0 2.4257813,-1.37109373 2.4257813,-3.02343753 0,-0.84375 -0.3867188,-1.6171875 -1.171875,-1.6171875 -0.609375,0 -1.2890625,0.2460938 -1.7578125,0.5976563 l 0.09375,-0.4804688 H 1.7578828 L 0.41022656,1.9328906 H 1.1836641 Z M 2.2735078,-3.1647656 c 0.035156,-0.1757813 0.046875,-0.1875 0.1640625,-0.3046875 0.4453125,-0.375 0.84375,-0.421875 1.0429688,-0.421875 0.609375,0 1.0429687,0.5039062 1.0429687,1.2539062 0,1.125 -0.9492187,2.13281253 -1.8632812,2.13281253 -0.6796875,0 -0.8203125,-0.60937503 -0.8203125,-0.65625003 0,0 0.035156,-0.1171875 0.035156,-0.140625 z m 0,0"
         style="fill:#000000;fill-opacity:1;fill-rule:nonzero;stroke:none" />
      <path
         id="path26"
         d="m 7.9131563,0.33328125 h 0.7265625 v -0.46875 H 7.9131563 V -3.076875 H 7.22175 l -1.8632812,2.94140625 v 0.46875 H 7.3037813 V 1.4934375 h 0.609375 z m -1.96875,-0.46875 C 6.1553438,-0.46359375 7.362375,-2.3151562 7.362375,-2.7370312 v 2.60156245 z m 0,0"
         style="fill:#000000;fill-opacity:1;fill-rule:nonzero;stroke:none" />
    </g>
    <path
       id="path27"
       d="M 226.77448,46.77203 H 368.50851"
       style="fill:none;stroke:#000000;stroke-width:0.79701;stroke-linecap:butt;stroke-linejoin:miter;stroke-miterlimit:10;stroke-dasharray:none;stroke-opacity:1"
       transform="matrix(1.3333333,0,0,-1.3333333,188.76533,191.97733)" />
    <g
       id="g27"
       aria-label="p&#10;5"
       transform="matrix(1.3333333,0,0,1.3333333,465.996,131.276)">
      <path
         id="path28"
         d="m 1.6992891,-0.45602344 c 0.140625,0.1640625 0.5039062,0.5625 1.2070312,0.5625 1.1835938,0 2.4257813,-1.37109376 2.4257813,-3.02343746 0,-0.84375 -0.3867188,-1.6171875 -1.171875,-1.6171875 -0.609375,0 -1.2890625,0.2460937 -1.7578125,0.5976562 l 0.09375,-0.4804687 H 1.7578828 L 0.41022656,1.9346016 H 1.1836641 Z M 2.2735078,-3.1630547 c 0.035156,-0.1757812 0.046875,-0.1875 0.1640625,-0.3046875 0.4453125,-0.375 0.84375,-0.421875 1.0429688,-0.421875 0.609375,0 1.0429687,0.5039063 1.0429687,1.2539063 0,1.125 -0.9492187,2.13281246 -1.8632812,2.13281246 -0.6796875,0 -0.8203125,-0.60937496 -0.8203125,-0.65624996 0,0 0.035156,-0.1171875 0.035156,-0.140625 z m 0,0"
         style="fill:#000000;fill-opacity:1;fill-rule:nonzero;stroke:none" />
      <path
         id="path29"
         d="m 6.2959688,-2.5946953 h 1.921875 v -0.4804688 h -2.484375 v 2.60156254 H 6.237375 c 0.1757813,-0.375 0.5039063,-0.53906254 0.8085938,-0.53906254 0.2929687,0 0.7265625,0.18750004 0.7265625,1.07812504 0,0.9140625 -0.5859375,1.11328126 -0.9375,1.11328126 -0.4570313,0 -0.9023438,-0.24609376 -1.1484375,-0.64453126 l -0.2578125,0.421875 C 5.768625,1.3779609 6.28425,1.6357734 6.8350313,1.6357734 c 0.9257812,0 1.640625,-0.70312496 1.640625,-1.55859371 0,-0.8671875 -0.6445313,-1.54687499 -1.40625,-1.54687499 -0.3046875,0 -0.5742188,0.09375 -0.7734375,0.2695312 z m 0,0"
         style="fill:#000000;fill-opacity:1;fill-rule:nonzero;stroke:none" />
    </g>
    <path
       id="path30"
       d="M 226.77448,24.09451 H 368.50851"
       style="fill:none;stroke:#000000;stroke-width:0.79701;stroke-linecap:butt;stroke-linejoin:miter;stroke-miterlimit:10;stroke-dasharray:none;stroke-opacity:1"
       transform="matrix(1.3333333,0,0,-1.3333333,188.76533,191.97733)" />
    <g
       id="g30"
       aria-label="p&#10;6"
       transform="matrix(1.3333333,0,0,1.3333333,465.996,161.512)">
      <path
         id="path31"
         d="m 1.6992891,-0.45724219 c 0.140625,0.1640625 0.5039062,0.5625 1.2070312,0.5625 1.1835938,0 2.4257813,-1.37109371 2.4257813,-3.02343751 0,-0.84375 -0.3867188,-1.6171875 -1.171875,-1.6171875 -0.609375,0 -1.2890625,0.2460938 -1.7578125,0.5976563 l 0.09375,-0.4804688 H 1.7578828 L 0.41022656,1.9333828 H 1.1836641 Z M 2.2735078,-3.1642734 c 0.035156,-0.1757813 0.046875,-0.1875 0.1640625,-0.3046875 0.4453125,-0.375 0.84375,-0.421875 1.0429688,-0.421875 0.609375,0 1.0429687,0.5039062 1.0429687,1.2539062 0,1.125 -0.9492187,2.13281251 -1.8632812,2.13281251 -0.6796875,0 -0.8203125,-0.60937501 -0.8203125,-0.65625001 0,0 0.035156,-0.1171875 0.035156,-0.140625 z m 0,0"
         style="fill:#000000;fill-opacity:1;fill-rule:nonzero;stroke:none" />
      <path
         id="path32"
         d="m 8.206125,-3.0881016 c -0.375,-0.140625 -0.6445312,-0.140625 -0.7734375,-0.140625 -1.0546875,0 -1.9804687,0.9960938 -1.9804687,2.47265629 0,1.88671871 0.8554687,2.39062501 1.5585937,2.39062501 0.5625,0 0.8554688,-0.2578125 1.0664063,-0.4804688 C 8.53425,0.67361719 8.53425,0.18142969 8.53425,-0.06466406 c 0,-0.9140625 -0.4921875,-1.66406254 -1.171875,-1.66406254 -0.6796875,0 -1.0546875,0.3515625 -1.2539062,0.5507813 0.09375,-0.9492188 0.5742187,-1.6171875 1.3359375,-1.6171875 0.140625,0 0.4101562,0.011719 0.7617187,0.1523437 z m -2.0859375,3.04687504 c 0,-0.03515625 0,-0.140625 0,-0.17578125 0,-0.48046875 0.3046875,-1.05468749 0.9257813,-1.05468749 0.84375,0 0.84375,0.97265624 0.84375,1.20703124 0,0.26953125 0,0.5625 -0.1875,0.85546875 -0.1640625,0.24609371 -0.375,0.38671871 -0.6914063,0.38671871 -0.7382812,0 -0.8554687,-0.91406246 -0.890625,-1.21874996 z m 0,0"
         style="fill:#000000;fill-opacity:1;fill-rule:nonzero;stroke:none" />
    </g>
    <path
       id="path33"
       d="m -85.04042,28.3468 v 82.45017"
       style="fill:none;stroke:#000000;stroke-width:0.79701;stroke-linecap:butt;stroke-linejoin:miter;stroke-miterlimit:10;stroke-dasharray:none;stroke-opacity:1"
       transform="matrix(1.3333333,0,0,-1.3333333,188.76533,191.97733)" />
    <path
       id="path34"
       d="M 2.59026,0 -1.55415,2.0722 0,0 -1.55415,-2.0722"
       style="fill:#000000;fill-opacity:1;fill-rule:nonzero;stroke:none"
       transform="matrix(0,-1.3333333,-1.3333333,0,75.378107,44.24804)" />
    <path
       id="path35"
       d="M 1.5571797,-3.9493359 V -4.4298047 H 0.81889844 V 1.9217578 H 1.5923359 v -2.39062499 c 0.3632813,0.3515625 0.8320313,0.57421875 1.359375,0.57421875 1.1601563,0 1.828125,-1.26562496 1.828125,-2.33203126 0,-0.8554687 -0.4101562,-2.3203125 -1.59375,-2.3203125 -0.5625,0 -1.1953125,0.2109375 -1.6289062,0.5976563 z m 2.4375,1.8632812 c -0.070312,0.7617188 -0.5859375,1.58203126 -1.4414063,1.58203126 -0.3632812,0 -0.9609375,-0.328125 -0.9609375,-0.73828126 v -1.5117187 c 0,-0.1054688 -0.011719,-0.2226563 -0.011719,-0.3398438 0,-0.4570312 0.5742187,-0.8085937 1.0664062,-0.8085937 0.84375,0 1.359375,0.890625 1.359375,1.6523437 0,0.058594 0,0.1054688 -0.011718,0.1640625 z m 2.3964844,-1.5 v -0.9023437 h -0.703125 v 4.47656246 H 6.4263203 V -2.0040234 c 0,-0.75 0.2695313,-1.4179688 1.125,-1.7578125 0.1757813,-0.070312 0.375,-0.1054688 0.5742188,-0.1054688 v -0.6796875 c -0.6445313,0 -1.5,0.4101563 -1.734375,0.9609375 z m 5.8974609,2.5195313 c -0.480469,0.30468746 -0.890625,0.56249996 -1.464844,0.56249996 -0.785156,0 -1.5234373,-0.69140626 -1.5234373,-1.68749996 h 3.0937503 c 0,-0.6796875 -0.105469,-1.4296875 -0.597657,-1.9453125 -0.304687,-0.3046875 -0.738281,-0.46875 -1.171875,-0.46875 -0.539062,0 -1.0429683,0.2578125 -1.3945308,0.65625 -0.4335937,0.46875 -0.6210937,1.1015625 -0.6210937,1.7226562 v 0.058594 c 0.011719,1.1601562 0.9140625,2.27343746 2.1679685,2.27343746 0.515625,0 1.007813,-0.15234375 1.429688,-0.421875 0.07031,-0.046875 0.152343,-0.0703125 0.152343,-0.17578125 0,-0.1875 -0.05859,-0.38671875 -0.07031,-0.57421871 z M 9.3589375,-2.7423047 c 0.140625,-0.609375 0.5625,-1.2421875 1.2656245,-1.2421875 0.703125,0 1.125,0.5859375 1.195313,1.2421875 z m 3.7353515,1.7109375 c -0.03516,0.19921876 -0.105469,0.44531251 -0.105469,0.62109376 0,0.26953125 1.042969,0.4453125 1.148438,0.46875 0.164062,0.0234375 0.339844,0.046875 0.515625,0.046875 0.738281,0 1.628906,-0.29296875 1.628906,-1.39453126 0,-0.6328125 -0.492187,-1.1367187 -1.066406,-1.3125 -0.492188,-0.1523437 -1.476563,-0.1171875 -1.476563,-0.796875 0,-0.421875 0.386719,-0.6210937 0.785157,-0.6210937 0.339843,0 0.691406,0.046875 1.019531,0.1757812 0.164062,0.058594 0.304687,0.1523438 0.457031,0.2226563 l 0.117188,-0.6679688 c -0.480469,-0.2109375 -0.9375,-0.3164062 -1.464844,-0.3164062 -0.75,0 -1.628906,0.3164062 -1.628906,1.3007812 0,0.7734375 0.691406,1.1953125 1.347656,1.3242188 0.445312,0.082031 1.207031,0.1523437 1.207031,0.7851562 0,0.46875001 -0.480469,0.66796876 -0.914062,0.66796876 -0.574219,0 -1.007813,-0.17578125 -1.570313,-0.50390626 z m 3.817383,0 c -0.03516,0.19921876 -0.105469,0.44531251 -0.105469,0.62109376 0,0.26953125 1.042969,0.4453125 1.148438,0.46875 0.164062,0.0234375 0.339843,0.046875 0.515625,0.046875 0.738281,0 1.628906,-0.29296875 1.628906,-1.39453126 0,-0.6328125 -0.492188,-1.1367187 -1.066406,-1.3125 -0.492188,-0.1523437 -1.476563,-0.1171875 -1.476563,-0.796875 0,-0.421875 0.386719,-0.6210937 0.785156,-0.6210937 0.339844,0 0.691407,0.046875 1.019532,0.1757812 0.164062,0.058594 0.304687,0.1523438 0.457031,0.2226563 l 0.117187,-0.6679688 c -0.480468,-0.2109375 -0.9375,-0.3164062 -1.464843,-0.3164062 -0.75,0 -1.628907,0.3164062 -1.628907,1.3007812 0,0.7734375 0.691407,1.1953125 1.347657,1.3242188 0.445312,0.082031 1.207031,0.1523437 1.207031,0.7851562 0,0.46875001 -0.480469,0.66796876 -0.914063,0.66796876 -0.574218,0 -1.007812,-0.17578125 -1.570312,-0.50390626 z m 4.227539,-3.3984375 v 2.8828125 c 0,0.1289063 -0.01172,0.2578125 -0.01172,0.3984375 0,0.32812501 0.03516,0.67968751 0.234375,0.92578126 0.199219,0.2578125 0.527344,0.328125 0.84375,0.328125 0.621094,0 1.230469,-0.2109375 1.710938,-0.59765625 v 0.48046875 h 0.75 V -4.4298047 h -0.785157 v 2.765625 c 0,0.77343751 -0.410156,1.21875001 -1.265625,1.21875001 -0.421875,0 -0.703125,-0.17578125 -0.703125,-0.66796871 v -3.3164063 z m 5.862305,0.84375 v -0.9023437 h -0.703125 v 4.47656246 h 0.738281 V -2.0040234 c 0,-0.75 0.269531,-1.4179688 1.125,-1.7578125 0.175781,-0.070312 0.375,-0.1054688 0.574219,-0.1054688 v -0.6796875 c -0.644532,0 -1.5,0.4101563 -1.734375,0.9609375 z m 5.897461,2.5195313 c -0.480469,0.30468746 -0.890625,0.56249996 -1.464844,0.56249996 -0.785156,0 -1.523438,-0.69140626 -1.523438,-1.68749996 h 3.09375 c 0,-0.6796875 -0.105468,-1.4296875 -0.597656,-1.9453125 -0.304687,-0.3046875 -0.738281,-0.46875 -1.171875,-0.46875 -0.539062,0 -1.042969,0.2578125 -1.394531,0.65625 -0.433594,0.46875 -0.621094,1.1015625 -0.621094,1.7226562 v 0.058594 c 0.01172,1.1601562 0.914063,2.27343746 2.167969,2.27343746 0.515625,0 1.007812,-0.15234375 1.429687,-0.421875 0.07031,-0.046875 0.152344,-0.0703125 0.152344,-0.17578125 0,-0.1875 -0.05859,-0.38671875 -0.07031,-0.57421871 z m -2.929688,-1.6757813 c 0.140625,-0.609375 0.5625,-1.2421875 1.265625,-1.2421875 0.703125,0 1.125,0.5859375 1.195313,1.2421875 z m 0,0"
       style="fill:#000000;fill-opacity:1;fill-rule:nonzero;stroke:none"
       aria-label="pressure"
       transform="matrix(0,-1.3333333,1.3333333,0,67.84,119.69733)" />
  </g>
</svg>
