<?xml version="1.0" encoding="UTF-8" standalone="no"?>
<!-- Created with Inkscape (http://www.inkscape.org/) -->

<svg
   version="1.1"
   id="svg1"
   width="294.96533"
   height="215.72133"
   viewBox="0 0 294.96533 215.72133"
   sodipodi:docname="specwin_limit.pdf"
   xmlns:inkscape="http://www.inkscape.org/namespaces/inkscape"
   xmlns:sodipodi="http://sodipodi.sourceforge.net/DTD/sodipodi-0.dtd"
   xmlns="http://www.w3.org/2000/svg"
   xmlns:svg="http://www.w3.org/2000/svg">
  <defs
     id="defs1">
    <clipPath
       clipPathUnits="userSpaceOnUse"
       id="clipPath3">
      <path
         d="M 0,6.20749 H 194.2676 V 167.6025 L 0,167.6025 Z"
         id="path3" />
    </clipPath>
    <clipPath
       clipPathUnits="userSpaceOnUse"
       id="clipPath73">
      <path
         d="M 0,6.20749 H 194.2676 V 167.6025 L 0,167.6025 Z"
         id="path73" />
    </clipPath>
  </defs>
  <sodipodi:namedview
     id="namedview1"
     pagecolor="#ffffff"
     bordercolor="#000000"
     borderopacity="0.25"
     inkscape:showpageshadow="2"
     inkscape:pageopacity="0.0"
     inkscape:pagecheckerboard="0"
     inkscape:deskcolor="#d1d1d1">
    <inkscape:page
       x="0"
       y="0"
       inkscape:label="1"
       id="page1"
       width="294.96533"
       height="215.72133"
       margin="0"
       bleed="0" />
  </sodipodi:namedview>
  <g
     id="g1"
     inkscape:groupmode="layer"
     inkscape:label="1">
    <path
       id="path1"
       d="M 0,6.20749 V 167.6025 H 194.2676 V 6.20749 Z"
       style="fill:none;stroke:#000000;stroke-width:0.3985;stroke-linecap:butt;stroke-linejoin:miter;stroke-miterlimit:10;stroke-dasharray:none;stroke-opacity:1"
       transform="matrix(1.3333333,0,0,-1.3333333,35.68,223.732)" />
    <path
       id="path2"
       d="M 64.75586,0 61.51807,167.6025"
       style="fill:none;stroke:#808080;stroke-width:1.19553;stroke-linecap:butt;stroke-linejoin:miter;stroke-miterlimit:10;stroke-dasharray:none;stroke-opacity:1"
       transform="matrix(1.3333333,0,0,-1.3333333,35.68,223.732)"
       clip-path="url(#clipPath3)" />
    <path
       id="path4"
       d="m 0.66892188,-3.6911875 c 0.0351563,0.2929688 0.09375,0.5742188 0.15234375,0.8671875 l 0.29296877,1.6992188 c 0.1171875,0.5976562 0.1054687,1.1601562 0.5859375,1.1601562 0.4570312,0 0.515625,-0.1171875 0.84375,-1.4296875 0.035156,-0.1640625 0.082031,-0.3164062 0.082031,-0.4921875 h 0.011719 c 0,0.4570313 0.2578125,1.078125 0.3867187,1.5234375 0.070312,0.328125 0.2695313,0.3984375 0.5039063,0.3984375 0.4804687,0 0.4804687,-0.609375 0.5742187,-1.1601562 L 4.4072031,-2.824 c 0.046875,-0.2929687 0.1171875,-0.5742187 0.140625,-0.8671875 h 0.1523438 c 0.2109375,0 0.3632812,-0.082031 0.3632812,-0.3046875 0,-0.2226562 -0.1757812,-0.2929687 -0.375,-0.2929687 h -1.265625 c -0.2226562,0 -0.3398437,0.1171875 -0.3398437,0.3046875 0,0.1875 0.1171875,0.2929687 0.328125,0.2929687 h 0.5742187 l -0.5039062,2.98828125 c 0,-0.1640625 -0.058594,-0.32812495 -0.1054688,-0.46874995 -0.140625,-0.5507813 -0.1992187,-1.4179688 -0.75,-1.4179688 -0.3984375,0 -0.4335937,0.3515625 -0.515625,0.6210938 C 1.9814219,-1.558375 1.8525156,-1.1365 1.7587656,-0.70290625 L 1.2314219,-3.6911875 h 0.5859375 c 0.2109375,0 0.328125,-0.1054687 0.328125,-0.2929687 0,-0.1875 -0.1171875,-0.3046875 -0.3398438,-0.3046875 H 0.52829688 c -0.19921875,0 -0.36328125,0.070312 -0.36328125,0.2929687 0,0.2226563 0.140625,0.3046875 0.3515625,0.3046875 z m 6.24902342,-0.046875 c 0.1757813,-0.023437 0.375,-0.046875 0.5625,-0.046875 0.5859375,0 1.2773438,0.234375 1.2773438,1.0195313 -1.1953125,0 -2.9765625,0.28125 -2.9765625,1.4882812 0,0.92578125 0.9257812,1.32421875 1.6640625,1.32421875 0.4804687,0 0.9375,-0.08203125 1.3242187,-0.31640625 0.011719,-0.0117188 0.035156,-0.0351563 0.070312,-0.0351563 h 0.011719 c 0.058594,0 0.1992187,0.15234375 0.328125,0.19921875 C 9.449195,2.187e-4 9.824195,2.187e-4 10.117164,2.187e-4 c 0.234375,0 0.328125,-0.15234375 0.328125,-0.328125 v -0.0351563 c 0,-0.1640625 -0.140625,-0.2578125 -0.316406,-0.2578125 H 9.8359141 c -0.1875,0 -0.3867188,-0.0117188 -0.3867188,-0.2109375 0,-0.046875 0,-0.0820313 0,-0.12890625 V -2.7654062 c 0,-0.9492188 -0.7265625,-1.5585938 -1.6992187,-1.6171875 H 7.3866953 c -0.5273437,0 -1.3476562,0.058594 -1.3476562,0.7265625 0,0.2929687 0.2226562,0.4570312 0.4453125,0.4570312 0.2460937,0 0.4453125,-0.1992187 0.4453125,-0.4335937 0,-0.035156 0,-0.070312 -0.011719,-0.1054688 z M 8.7577891,-2.16775 V -1.324 c 0,0.64453125 -0.7382813,0.76171875 -1.2304688,0.76171875 -0.421875,0 -1.0546875,-0.1875 -1.0546875,-0.71484375 0,-0.5625 0.9140625,-0.75 1.3125,-0.8203125 0.328125,-0.046875 0.65625,-0.070312 0.9726563,-0.070312 z m 5.3935549,-1.5234375 -1.066406,3.1875 H 13.0615 l -1.078125,-3.1875 h 0.304688 c 0.199218,0 0.375,-0.058594 0.375,-0.2929687 0,-0.1992188 -0.128907,-0.3046875 -0.375,-0.3046875 h -0.996094 c -0.07031,0 -0.152344,-0.011719 -0.222656,-0.011719 -0.234375,0 -0.375,0.1171875 -0.375,0.3164063 0,0.2109375 0.164062,0.2929687 0.351562,0.2929687 h 0.246094 c 0.140625,0 0.152344,0.140625 0.1875,0.2578125 l 0.175781,0.5390625 c 0.269531,0.8085938 0.539063,1.640625 0.832031,2.4375 0.08203,0.2578125 0.1875,0.4921875 0.480469,0.4921875 h 0.05859 c 0.1875,0 0.351562,-0.01171875 0.480469,-0.1640625 0.08203,-0.09375 0.105468,-0.2109375 0.140625,-0.31640625 0.316406,-1.00781245 0.691406,-2.00390625 1.019531,-2.99999995 0.02344,-0.1054688 0.03516,-0.2460938 0.175781,-0.2460938 h 0.246094 c 0.1875,0 0.363281,-0.082031 0.363281,-0.2929687 0,-0.1992188 -0.152344,-0.3164063 -0.375,-0.3164063 -0.07031,0 -0.152344,0.011719 -0.222656,0.011719 h -0.996094 c -0.246094,0 -0.375,0.1054687 -0.375,0.3046875 0,0.234375 0.175781,0.2929687 0.375,0.2929687 z m 2.803711,1.78125 h 2.964843 c 0.210938,0 0.386719,-0.046875 0.386719,-0.3515625 0,-0.5390625 -0.140625,-1.1015625 -0.46875,-1.5 -0.363281,-0.421875 -0.902344,-0.6210937 -1.441406,-0.6210937 -1.125,0 -2.15625,0.890625 -2.15625,2.2382812 v 0.09375 c 0.04687,1.18359375 1.101562,2.09765625 2.296875,2.09765625 h 0.105469 c 0.539062,-0.01171875 1.136718,-0.22265625 1.464843,-0.6796875 0.08203,-0.12890625 0.199219,-0.3046875 0.199219,-0.46874995 0,-0.1992188 -0.175781,-0.2695313 -0.351562,-0.2695313 -0.304688,0 -0.316407,0.1875 -0.410157,0.3515625 -0.210937,0.31640625 -0.585937,0.45703125 -0.960937,0.45703125 -0.796875,0 -1.417969,-0.53906245 -1.628906,-1.34765625 z m 0.01172,-0.5976562 c 0.1875,-0.6445313 0.621094,-1.265625 1.429688,-1.265625 0.726562,0 1.160156,0.5742187 1.195312,1.265625 z m 6.213868,-2.9765625 V -0.620875 H 21.79783 c -0.1875,0 -0.316406,0.12890625 -0.316406,0.31640625 0,0.2109375 0.175781,0.29296875 0.375,0.29296875 h 3.480469 c 0.152343,-0.0234375 0.234375,-0.1640625 0.234375,-0.3046875 0,-0.17578125 -0.105469,-0.3046875 -0.304688,-0.3046875 h -1.394531 v -5.0976562 c 0,-0.3398438 -0.164063,-0.375 -0.375,-0.375 h -1.628906 c -0.164063,0 -0.386719,0.023437 -0.386719,0.2929687 0,0.1875 0.128906,0.3164063 0.328125,0.3164063 z m 4.230468,3.5742187 h 2.964844 c 0.210938,0 0.386719,-0.046875 0.386719,-0.3515625 0,-0.5390625 -0.140625,-1.1015625 -0.46875,-1.5 -0.363281,-0.421875 -0.902344,-0.6210937 -1.441406,-0.6210937 -1.125,0 -2.15625,0.890625 -2.15625,2.2382812 v 0.09375 c 0.04687,1.18359375 1.101562,2.09765625 2.296875,2.09765625 h 0.105468 c 0.539063,-0.01171875 1.136719,-0.22265625 1.464844,-0.6796875 0.08203,-0.12890625 0.199219,-0.3046875 0.199219,-0.46874995 0,-0.1992188 -0.175781,-0.2695313 -0.351563,-0.2695313 -0.304687,0 -0.316406,0.1875 -0.410156,0.3515625 -0.210937,0.31640625 -0.585937,0.45703125 -0.960937,0.45703125 -0.796875,0 -1.417969,-0.53906245 -1.628907,-1.34765625 z m 0.01172,-0.5976562 c 0.1875,-0.6445313 0.621094,-1.265625 1.429688,-1.265625 0.726562,0 1.160156,0.5742187 1.195312,1.265625 z M 33.02732,-3.8318125 V -3.949 c 0,-0.1992187 -0.09375,-0.3398437 -0.351562,-0.3398437 H 31.80857 c -0.175781,0 -0.328125,0.1054687 -0.328125,0.3046875 0,0.2109375 0.164063,0.2929687 0.351563,0.2929687 h 0.503906 V -0.620875 H 31.80857 c -0.199218,0 -0.328125,0.12890625 -0.328125,0.3046875 0,0.2109375 0.152344,0.3046875 0.375,0.3046875 h 1.628907 c 0.234375,0 0.386718,-0.08203125 0.386718,-0.29296875 0,-0.19921875 -0.140625,-0.31640625 -0.328125,-0.31640625 H 33.02732 v -1.6640625 c 0,-0.7734375 0.457032,-1.4648437 1.265625,-1.4648437 0.515625,0 0.644532,0.3984375 0.644532,0.8320312 v 2.296875 h -0.46875 c -0.210938,0 -0.328125,0.15234375 -0.328125,0.31640625 0,0.22265625 0.1875,0.29296875 0.386718,0.29296875 h 1.59375 c 0.210938,0 0.363282,-0.09375 0.363282,-0.3046875 0,-0.17578125 -0.128907,-0.3046875 -0.328125,-0.3046875 h -0.515625 v -2.1796875 c 0,-0.6796875 -0.175782,-1.546875 -1.300782,-1.546875 -0.46875,0 -0.960937,0.1875 -1.3125,0.515625 z m 6.870118,-0.2226562 h -0.01172 c -0.234374,-0.2226563 -0.64453,-0.2929688 -0.949218,-0.2929688 -0.832031,0 -1.664062,0.6210938 -1.664062,1.5703125 0,0.28125 0.07031,0.5742188 0.222656,0.8203125 0.01172,0.035156 0.07031,0.082031 0.07031,0.1289063 v 0.011719 c 0,0.1171875 -0.1875,0.4335938 -0.1875,0.65625 0,0.28125 0.117188,0.46875 0.246094,0.7265625 -0.398437,0.19921875 -0.726562,0.7265625 -0.726562,1.23046875 0,1.03125005 1.335937,1.47656255 2.273437,1.47656255 0.480469,0 0.960938,-0.058594 1.394531,-0.2578125 0.457032,-0.2109375 0.925782,-0.5742188 0.972657,-1.1132813 V 0.83225 c 0,-1.25390625 -1.3125,-1.453125 -2.34375,-1.453125 h -0.609375 c -0.04687,-0.0117188 -0.08203,-0.0117188 -0.140625,-0.0234375 h -0.08203 c -0.257812,0 -0.386718,-0.2578125 -0.386718,-0.46875 0,-0.1054687 0.02344,-0.1992187 0.05859,-0.3046875 0.246094,0.1289063 0.503907,0.234375 0.796875,0.2578125 h 0.09375 c 0.84375,0 1.652344,-0.65625 1.652344,-1.59375 0,-0.2695312 -0.07031,-0.515625 -0.1875,-0.7382812 -0.02344,-0.023437 -0.04687,-0.070312 -0.04687,-0.1171875 0,-0.082031 0.363281,-0.1523438 0.550781,-0.1875 0.03516,0.1875 0.164063,0.3398437 0.375,0.3398437 0.1875,0 0.375,-0.1289062 0.410157,-0.3515625 V -3.85525 c 0,-0.375 -0.410157,-0.5625 -0.75,-0.5625 -0.375,0 -0.832032,0.1640625 -1.03125,0.3632813 z m -2.414063,4.9101562 c 0,-0.0234375 -0.01172,-0.046875 -0.01172,-0.0820313 0,-0.5390625 0.574219,-0.83203125 1.03125,-0.83203125 0.117188,0 0.222657,0.01171875 0.328125,0.01171875 h 0.503907 c 0.609375,0 1.546875,0.046875 1.617187,0.78515625 v 0.0585938 C 40.952125,1.160375 40.53025,1.39475 40.225563,1.5002188 39.897438,1.629125 39.545875,1.676 39.194313,1.676 38.831031,1.676 38.456031,1.6174063 38.104469,1.4650625 37.846656,1.3595938 37.506813,1.160375 37.483375,0.8556875 Z m 0.480469,-3.5390625 v -0.070312 c 0,-0.5273437 0.433594,-0.9960937 0.960937,-0.9960937 h 0.03516 c 0.46875,0.023437 0.867187,0.3984375 0.925781,0.9140625 v 0.082031 c 0,0.515625 -0.433594,0.9960938 -0.960938,0.9960938 h -0.02344 C 38.420875,-1.79275 38.034156,-2.16775 37.963844,-2.683375 Z m 5.381836,-1.6054687 h -0.902344 c -0.246094,0 -0.363281,0.1171875 -0.363281,0.3046875 0,0.1992187 0.164062,0.2929687 0.351562,0.2929687 h 0.914063 v 2.5898438 c 0.07031,0.7382812 0.644531,1.14843745 1.417968,1.14843745 0.738282,0 1.546875,-0.45703125 1.546875,-1.27734375 v -0.1171875 c 0,-0.2695312 -0.1875,-0.3046875 -0.363281,-0.3046875 -0.222656,0 -0.339844,0.1171875 -0.339844,0.3515625 v 0.070312 c 0,0.45703125 -0.445312,0.66796875 -0.808593,0.66796875 -0.550782,0 -0.75,-0.33984375 -0.75,-0.79687495 V -3.691188 h 1.640625 c 0.175781,0 0.398437,-0.023437 0.398437,-0.2929687 0,-0.1875 -0.117187,-0.3046875 -0.339844,-0.3046875 H 44.048805 V -5.16775 c 0,-0.2929687 -0.164063,-0.3515625 -0.351563,-0.3515625 -0.1875,0 -0.351562,0.070312 -0.351562,0.3632813 z m 4.678711,-1.1953125 v 4.8632812 h -0.527344 c -0.199219,0 -0.328125,0.12890625 -0.328125,0.3046875 0,0.2109375 0.152344,0.3046875 0.375,0.3046875 h 1.628906 c 0.234375,0 0.386719,-0.08203125 0.386719,-0.29296875 0,-0.19921875 -0.140625,-0.31640625 -0.328125,-0.31640625 h -0.515625 v -1.6640625 c 0,-0.7734375 0.457031,-1.4648437 1.265625,-1.4648437 0.515625,0 0.644531,0.3984375 0.644531,0.8320312 v 2.296875 h -0.46875 c -0.210937,0 -0.328125,0.15234375 -0.328125,0.31640625 0,0.22265625 0.1875,0.29296875 0.386719,0.29296875 h 1.59375 c 0.210937,0 0.363281,-0.09375 0.363281,-0.3046875 0,-0.17578125 -0.128906,-0.3046875 -0.328125,-0.3046875 h -0.515625 v -2.1796875 c 0,-0.6796875 -0.175781,-1.546875 -1.300781,-1.546875 -0.46875,0 -0.960938,0.1875 -1.3125,0.515625 v -1.8867187 c 0,-0.3398438 -0.164063,-0.375 -0.375,-0.375 h -0.914063 c -0.140625,0.023437 -0.257812,0.1523437 -0.257812,0.2929687 0,0.1875 0.128906,0.3164063 0.328125,0.3164063 z m 5.112304,5.7304687 c -0.175781,0.0351563 -0.28125,0.1875 -0.28125,0.3515625 0,0.234375 0.175782,0.33984375 0.421875,0.33984375 h 3.257813 c 0.257812,0 0.410156,-0.140625 0.410156,-0.33984375 0,-0.1640625 -0.105469,-0.33984375 -0.304687,-0.36328125 h -3.316407 c -0.05859,0 -0.128906,0 -0.1875,0.0117188 z m 5.463868,-4.21875 c 0,-0.28125 -0.199219,-0.328125 -0.398438,-0.328125 -0.09375,0 -0.175781,0.011719 -0.246094,0.011719 h -0.128906 c -0.175781,0 -0.351562,0.070312 -0.351562,0.2929687 0,0.1523438 0.09375,0.2929688 0.257812,0.3046875 h 0.304688 v 3.0703125 c -0.05859,0 -0.117188,-0.0117188 -0.1875,-0.0117188 -0.199219,0 -0.375,0.09375 -0.375,0.31640625 0,0.19921875 0.140625,0.3046875 0.351562,0.3046875 h 0.972656 c 0.210938,0 0.363282,-0.09375 0.363282,-0.3046875 0,-0.22265625 -0.175782,-0.31640625 -0.375,-0.31640625 -0.07031,0 -0.128907,0.0117188 -0.1875,0.0117188 v -1.5585937 c 0,-0.5742188 0.08203,-1.3710938 0.691406,-1.5351563 0.05859,-0.023437 0.117187,-0.035156 0.164062,-0.035156 0.398438,0 0.398438,0.5625 0.398438,0.8671875 v 2.2617187 h -0.152344 c -0.210937,0 -0.351562,0.09375 -0.351562,0.3046875 0,0.19921875 0.117187,0.3046875 0.339843,0.3046875 h 0.9375 c 0.210938,0 0.351563,-0.10546875 0.351563,-0.3046875 0,-0.22265625 -0.175781,-0.31640625 -0.375,-0.31640625 -0.07031,0 -0.128906,0.0117188 -0.1875,0.0117188 V -2.1794682 c 0,-0.5742189 0.07031,-1.3710939 0.691406,-1.5351564 0.04687,-0.023437 0.105469,-0.035156 0.164063,-0.035156 0.398437,0 0.398437,0.5625 0.398437,0.8671875 v 2.26171875 h -0.152344 c -0.210937,0 -0.363281,0.09375 -0.363281,0.3046875 0,0.19921875 0.117188,0.3046875 0.351563,0.3046875 h 0.9375 c 0.210937,0 0.351562,-0.10546875 0.351562,-0.3046875 0,-0.22265625 -0.1875,-0.31640625 -0.386719,-0.31640625 -0.07031,0 -0.128906,0.0117188 -0.1875,0.0117188 V -2.929468 c 0,-0.5625 -0.09375,-1.4296875 -0.925781,-1.4296875 -0.398437,0 -0.832031,0.2460937 -1.019531,0.5390625 -0.164063,-0.3164063 -0.410156,-0.5273438 -0.796875,-0.5273438 -0.328125,0 -0.65625,0.1523438 -0.878906,0.3749993 z m 6.541992,0.28125 v 3.0703125 h -1.230469 c -0.257813,0 -0.386719,0.1171875 -0.386719,0.3046875 0,0.140625 0.09375,0.28125 0.257813,0.3046875 h 3.175781 c 0.210937,0 0.328125,-0.10546875 0.328125,-0.29296875 0,-0.19921875 -0.128906,-0.328125 -0.363281,-0.328125 -0.08203,0 -0.152344,0.0117188 -0.222657,0.0117188 H 65.84568 V -3.949 c 0,-0.2929687 -0.1875,-0.3398437 -0.375,-0.3398437 h -1.488282 c -0.164062,0 -0.375,0.035156 -0.375,0.3046875 0,0.2226562 0.152344,0.2929687 0.386719,0.2929687 z m 0.128906,-2.4023437 c -0.269531,0.035156 -0.421875,0.2695312 -0.421875,0.4804687 0,0.2226563 0.175781,0.5039063 0.457031,0.5039063 0.316406,0 0.539063,-0.234375 0.539063,-0.5039063 0,-0.2109375 -0.1875,-0.4921875 -0.480469,-0.4921875 -0.03516,0 -0.05859,0.011719 -0.09375,0.011719 z m 4.362305,2.2617187 V -3.949 c 0,-0.1992187 -0.09375,-0.3398437 -0.351563,-0.3398437 h -0.867187 c -0.175782,0 -0.328125,0.1054687 -0.328125,0.3046875 0,0.2109375 0.164062,0.2929687 0.351562,0.2929687 h 0.503906 v 3.0703125 h -0.527343 c -0.199219,0 -0.328125,0.12890625 -0.328125,0.3046875 0,0.2109375 0.152343,0.3046875 0.375,0.3046875 h 1.628906 c 0.234375,0 0.386719,-0.08203125 0.386719,-0.29296875 0,-0.19921875 -0.140625,-0.31640625 -0.328125,-0.31640625 h -0.515625 v -1.6640625 c 0,-0.7734375 0.457031,-1.4648437 1.265625,-1.4648437 0.515625,0 0.644531,0.3984375 0.644531,0.8320312 v 2.296875 h -0.46875 c -0.210938,0 -0.328125,0.15234375 -0.328125,0.31640625 0,0.22265625 0.1875,0.29296875 0.386719,0.29296875 h 1.59375 c 0.210937,0 0.363281,-0.09375 0.363281,-0.3046875 0,-0.17578125 -0.128906,-0.3046875 -0.328125,-0.3046875 h -0.515625 v -2.1796875 c 0,-0.6796875 -0.175781,-1.546875 -1.300781,-1.546875 -0.46875,0 -0.960938,0.1875 -1.3125,0.515625 z m 0,0"
       style="fill:#000000;fill-opacity:1;fill-rule:nonzero;stroke:none"
       aria-label="wavelength_min"
       transform="matrix(1.3333333,0,0,1.3333333,168.83467,68.765333)" />
    <path
       id="path5"
       d="m 61.51807,150.22148 57.02887,-24.38864"
       style="fill:none;stroke:#808080;stroke-width:0.19925;stroke-linecap:butt;stroke-linejoin:miter;stroke-miterlimit:10;stroke-dasharray:none;stroke-opacity:1"
       transform="matrix(1.3333333,0,0,-1.3333333,35.68,223.732)" />
    <path
       id="path6"
       d="m 12.78519,18.6225 c 0,1.10046 -0.89208,1.99255 -1.99256,1.99255 -1.10046,0 -1.99255,-0.89209 -1.99255,-1.99255 0,-1.10048 0.89209,-1.99256 1.99255,-1.99256 1.10048,0 1.99256,0.89208 1.99256,1.99256 z"
       style="fill:#ff0000;fill-opacity:1;fill-rule:nonzero;stroke:#ff0000;stroke-width:0.3985;stroke-linecap:butt;stroke-linejoin:miter;stroke-miterlimit:10;stroke-dasharray:none;stroke-opacity:1"
       transform="matrix(1.3333333,0,0,-1.3333333,35.68,223.732)" />
    <path
       id="path7"
       d="m 12.78519,18.6225 c 0,1.10046 -0.89208,1.99255 -1.99256,1.99255 -1.10046,0 -1.99255,-0.89209 -1.99255,-1.99255 0,-1.10048 0.89209,-1.99256 1.99255,-1.99256 1.10048,0 1.99256,0.89208 1.99256,1.99256 z"
       style="fill:#ff0000;fill-opacity:1;fill-rule:nonzero;stroke:#ff0000;stroke-width:0.3985;stroke-linecap:butt;stroke-linejoin:miter;stroke-miterlimit:10;stroke-dasharray:none;stroke-opacity:1"
       transform="matrix(1.3333333,0,0,-1.3333333,35.68,223.732)" />
    <path
       id="path8"
       d="m 18.18152,18.6225 c 0,1.10046 -0.89209,1.99255 -1.99256,1.99255 -1.10047,0 -1.99255,-0.89209 -1.99255,-1.99255 0,-1.10048 0.89208,-1.99256 1.99255,-1.99256 1.10047,0 1.99256,0.89208 1.99256,1.99256 z"
       style="fill:#ff0000;fill-opacity:1;fill-rule:nonzero;stroke:#ff0000;stroke-width:0.3985;stroke-linecap:butt;stroke-linejoin:miter;stroke-miterlimit:10;stroke-dasharray:none;stroke-opacity:1"
       transform="matrix(1.3333333,0,0,-1.3333333,35.68,223.732)" />
    <path
       id="path9"
       d="m 18.18152,18.6225 c 0,1.10046 -0.89209,1.99255 -1.99256,1.99255 -1.10047,0 -1.99255,-0.89209 -1.99255,-1.99255 0,-1.10048 0.89208,-1.99256 1.99255,-1.99256 1.10047,0 1.99256,0.89208 1.99256,1.99256 z"
       style="fill:#ff0000;fill-opacity:1;fill-rule:nonzero;stroke:#ff0000;stroke-width:0.3985;stroke-linecap:butt;stroke-linejoin:miter;stroke-miterlimit:10;stroke-dasharray:none;stroke-opacity:1"
       transform="matrix(1.3333333,0,0,-1.3333333,35.68,223.732)" />
    <path
       id="path10"
       d="m 23.57784,18.6225 c 0,1.10046 -0.89209,1.99255 -1.99256,1.99255 -1.10046,0 -1.99255,-0.89209 -1.99255,-1.99255 0,-1.10048 0.89209,-1.99256 1.99255,-1.99256 1.10047,0 1.99256,0.89208 1.99256,1.99256 z"
       style="fill:#ff0000;fill-opacity:1;fill-rule:nonzero;stroke:#ff0000;stroke-width:0.3985;stroke-linecap:butt;stroke-linejoin:miter;stroke-miterlimit:10;stroke-dasharray:none;stroke-opacity:1"
       transform="matrix(1.3333333,0,0,-1.3333333,35.68,223.732)" />
    <path
       id="path11"
       d="m 23.57784,18.6225 c 0,1.10046 -0.89209,1.99255 -1.99256,1.99255 -1.10046,0 -1.99255,-0.89209 -1.99255,-1.99255 0,-1.10048 0.89209,-1.99256 1.99255,-1.99256 1.10047,0 1.99256,0.89208 1.99256,1.99256 z"
       style="fill:#ff0000;fill-opacity:1;fill-rule:nonzero;stroke:#ff0000;stroke-width:0.3985;stroke-linecap:butt;stroke-linejoin:miter;stroke-miterlimit:10;stroke-dasharray:none;stroke-opacity:1"
       transform="matrix(1.3333333,0,0,-1.3333333,35.68,223.732)" />
    <path
       id="path12"
       d="m 28.97415,18.6225 c 0,1.10046 -0.89207,1.99255 -1.99255,1.99255 -1.10047,0 -1.99256,-0.89209 -1.99256,-1.99255 0,-1.10048 0.89209,-1.99256 1.99256,-1.99256 1.10048,0 1.99255,0.89208 1.99255,1.99256 z"
       style="fill:#ff0000;fill-opacity:1;fill-rule:nonzero;stroke:#ff0000;stroke-width:0.3985;stroke-linecap:butt;stroke-linejoin:miter;stroke-miterlimit:10;stroke-dasharray:none;stroke-opacity:1"
       transform="matrix(1.3333333,0,0,-1.3333333,35.68,223.732)" />
    <path
       id="path13"
       d="m 28.97415,18.6225 c 0,1.10046 -0.89207,1.99255 -1.99255,1.99255 -1.10047,0 -1.99256,-0.89209 -1.99256,-1.99255 0,-1.10048 0.89209,-1.99256 1.99256,-1.99256 1.10048,0 1.99255,0.89208 1.99255,1.99256 z"
       style="fill:#ff0000;fill-opacity:1;fill-rule:nonzero;stroke:#ff0000;stroke-width:0.3985;stroke-linecap:butt;stroke-linejoin:miter;stroke-miterlimit:10;stroke-dasharray:none;stroke-opacity:1"
       transform="matrix(1.3333333,0,0,-1.3333333,35.68,223.732)" />
    <path
       id="path14"
       d="m 34.37048,18.6225 c 0,1.10046 -0.89208,1.99255 -1.99255,1.99255 -1.10048,0 -1.99255,-0.89209 -1.99255,-1.99255 0,-1.10048 0.89207,-1.99256 1.99255,-1.99256 1.10047,0 1.99255,0.89208 1.99255,1.99256 z"
       style="fill:#ff0000;fill-opacity:1;fill-rule:nonzero;stroke:#ff0000;stroke-width:0.3985;stroke-linecap:butt;stroke-linejoin:miter;stroke-miterlimit:10;stroke-dasharray:none;stroke-opacity:1"
       transform="matrix(1.3333333,0,0,-1.3333333,35.68,223.732)" />
    <path
       id="path15"
       d="m 34.37048,18.6225 c 0,1.10046 -0.89208,1.99255 -1.99255,1.99255 -1.10048,0 -1.99255,-0.89209 -1.99255,-1.99255 0,-1.10048 0.89207,-1.99256 1.99255,-1.99256 1.10047,0 1.99255,0.89208 1.99255,1.99256 z"
       style="fill:#ff0000;fill-opacity:1;fill-rule:nonzero;stroke:#ff0000;stroke-width:0.3985;stroke-linecap:butt;stroke-linejoin:miter;stroke-miterlimit:10;stroke-dasharray:none;stroke-opacity:1"
       transform="matrix(1.3333333,0,0,-1.3333333,35.68,223.732)" />
    <path
       id="path16"
       d="m 39.7668,18.6225 c 0,1.10046 -0.89207,1.99255 -1.99255,1.99255 -1.10047,0 -1.99255,-0.89209 -1.99255,-1.99255 0,-1.10048 0.89208,-1.99256 1.99255,-1.99256 1.10048,0 1.99255,0.89208 1.99255,1.99256 z"
       style="fill:#ff0000;fill-opacity:1;fill-rule:nonzero;stroke:#ff0000;stroke-width:0.3985;stroke-linecap:butt;stroke-linejoin:miter;stroke-miterlimit:10;stroke-dasharray:none;stroke-opacity:1"
       transform="matrix(1.3333333,0,0,-1.3333333,35.68,223.732)" />
    <path
       id="path17"
       d="m 39.7668,18.6225 c 0,1.10046 -0.89207,1.99255 -1.99255,1.99255 -1.10047,0 -1.99255,-0.89209 -1.99255,-1.99255 0,-1.10048 0.89208,-1.99256 1.99255,-1.99256 1.10048,0 1.99255,0.89208 1.99255,1.99256 z"
       style="fill:#ff0000;fill-opacity:1;fill-rule:nonzero;stroke:#ff0000;stroke-width:0.3985;stroke-linecap:butt;stroke-linejoin:miter;stroke-miterlimit:10;stroke-dasharray:none;stroke-opacity:1"
       transform="matrix(1.3333333,0,0,-1.3333333,35.68,223.732)" />
    <path
       id="path18"
       d="m 45.16313,18.6225 c 0,1.10046 -0.89209,1.99255 -1.99255,1.99255 -1.10048,0 -1.99256,-0.89209 -1.99256,-1.99255 0,-1.10048 0.89208,-1.99256 1.99256,-1.99256 1.10046,0 1.99255,0.89208 1.99255,1.99256 z"
       style="fill:#ff0000;fill-opacity:1;fill-rule:nonzero;stroke:#ff0000;stroke-width:0.3985;stroke-linecap:butt;stroke-linejoin:miter;stroke-miterlimit:10;stroke-dasharray:none;stroke-opacity:1"
       transform="matrix(1.3333333,0,0,-1.3333333,35.68,223.732)" />
    <path
       id="path19"
       d="m 45.16313,18.6225 c 0,1.10046 -0.89209,1.99255 -1.99255,1.99255 -1.10048,0 -1.99256,-0.89209 -1.99256,-1.99255 0,-1.10048 0.89208,-1.99256 1.99256,-1.99256 1.10046,0 1.99255,0.89208 1.99255,1.99256 z"
       style="fill:#ff0000;fill-opacity:1;fill-rule:nonzero;stroke:#ff0000;stroke-width:0.3985;stroke-linecap:butt;stroke-linejoin:miter;stroke-miterlimit:10;stroke-dasharray:none;stroke-opacity:1"
       transform="matrix(1.3333333,0,0,-1.3333333,35.68,223.732)" />
    <path
       id="path20"
       d="m 50.55945,18.6225 c 0,1.10046 -0.89209,1.99255 -1.99255,1.99255 -1.10048,0 -1.99256,-0.89209 -1.99256,-1.99255 0,-1.10048 0.89208,-1.99256 1.99256,-1.99256 1.10046,0 1.99255,0.89208 1.99255,1.99256 z"
       style="fill:#ff0000;fill-opacity:1;fill-rule:nonzero;stroke:#ff0000;stroke-width:0.3985;stroke-linecap:butt;stroke-linejoin:miter;stroke-miterlimit:10;stroke-dasharray:none;stroke-opacity:1"
       transform="matrix(1.3333333,0,0,-1.3333333,35.68,223.732)" />
    <path
       id="path21"
       d="m 50.55945,18.6225 c 0,1.10046 -0.89209,1.99255 -1.99255,1.99255 -1.10048,0 -1.99256,-0.89209 -1.99256,-1.99255 0,-1.10048 0.89208,-1.99256 1.99256,-1.99256 1.10046,0 1.99255,0.89208 1.99255,1.99256 z"
       style="fill:#ff0000;fill-opacity:1;fill-rule:nonzero;stroke:#ff0000;stroke-width:0.3985;stroke-linecap:butt;stroke-linejoin:miter;stroke-miterlimit:10;stroke-dasharray:none;stroke-opacity:1"
       transform="matrix(1.3333333,0,0,-1.3333333,35.68,223.732)" />
    <path
       id="path22"
       d="m 55.95576,18.6225 c 0,1.10046 -0.89207,1.99255 -1.99255,1.99255 -1.10046,0 -1.99255,-0.89209 -1.99255,-1.99255 0,-1.10048 0.89209,-1.99256 1.99255,-1.99256 1.10048,0 1.99255,0.89208 1.99255,1.99256 z"
       style="fill:#ff0000;fill-opacity:1;fill-rule:nonzero;stroke:#ff0000;stroke-width:0.3985;stroke-linecap:butt;stroke-linejoin:miter;stroke-miterlimit:10;stroke-dasharray:none;stroke-opacity:1"
       transform="matrix(1.3333333,0,0,-1.3333333,35.68,223.732)" />
    <path
       id="path23"
       d="m 55.95576,18.6225 c 0,1.10046 -0.89207,1.99255 -1.99255,1.99255 -1.10046,0 -1.99255,-0.89209 -1.99255,-1.99255 0,-1.10048 0.89209,-1.99256 1.99255,-1.99256 1.10048,0 1.99255,0.89208 1.99255,1.99256 z"
       style="fill:#ff0000;fill-opacity:1;fill-rule:nonzero;stroke:#ff0000;stroke-width:0.3985;stroke-linecap:butt;stroke-linejoin:miter;stroke-miterlimit:10;stroke-dasharray:none;stroke-opacity:1"
       transform="matrix(1.3333333,0,0,-1.3333333,35.68,223.732)" />
    <path
       id="path24"
       d="m 61.3521,18.6225 c 0,1.10046 -0.8921,1.99255 -1.99256,1.99255 -1.10048,0 -1.99255,-0.89209 -1.99255,-1.99255 0,-1.10048 0.89207,-1.99256 1.99255,-1.99256 1.10046,0 1.99256,0.89208 1.99256,1.99256 z"
       style="fill:#ff0000;fill-opacity:1;fill-rule:nonzero;stroke:#ff0000;stroke-width:0.3985;stroke-linecap:butt;stroke-linejoin:miter;stroke-miterlimit:10;stroke-dasharray:none;stroke-opacity:1"
       transform="matrix(1.3333333,0,0,-1.3333333,35.68,223.732)" />
    <path
       id="path25"
       d="m 61.3521,18.6225 c 0,1.10046 -0.8921,1.99255 -1.99256,1.99255 -1.10048,0 -1.99255,-0.89209 -1.99255,-1.99255 0,-1.10048 0.89207,-1.99256 1.99255,-1.99256 1.10046,0 1.99256,0.89208 1.99256,1.99256 z"
       style="fill:#ff0000;fill-opacity:1;fill-rule:nonzero;stroke:#ff0000;stroke-width:0.3985;stroke-linecap:butt;stroke-linejoin:miter;stroke-miterlimit:10;stroke-dasharray:none;stroke-opacity:1"
       transform="matrix(1.3333333,0,0,-1.3333333,35.68,223.732)" />
    <path
       id="path26"
       d="m 66.74841,18.6225 c 0,1.10046 -0.89207,1.99255 -1.99255,1.99255 -1.10046,0 -1.99256,-0.89209 -1.99256,-1.99255 0,-1.10048 0.8921,-1.99256 1.99256,-1.99256 1.10048,0 1.99255,0.89208 1.99255,1.99256 z"
       style="fill:#ff0000;fill-opacity:1;fill-rule:nonzero;stroke:#ff0000;stroke-width:0.3985;stroke-linecap:butt;stroke-linejoin:miter;stroke-miterlimit:10;stroke-dasharray:none;stroke-opacity:1"
       transform="matrix(1.3333333,0,0,-1.3333333,35.68,223.732)" />
    <path
       id="path27"
       d="m 66.74841,18.6225 c 0,1.10046 -0.89207,1.99255 -1.99255,1.99255 -1.10046,0 -1.99256,-0.89209 -1.99256,-1.99255 0,-1.10048 0.8921,-1.99256 1.99256,-1.99256 1.10048,0 1.99255,0.89208 1.99255,1.99256 z"
       style="fill:#ff0000;fill-opacity:1;fill-rule:nonzero;stroke:#ff0000;stroke-width:0.3985;stroke-linecap:butt;stroke-linejoin:miter;stroke-miterlimit:10;stroke-dasharray:none;stroke-opacity:1"
       transform="matrix(1.3333333,0,0,-1.3333333,35.68,223.732)" />
    <path
       id="path28"
       d="m 72.14473,18.6225 c 0,1.10046 -0.89207,1.99255 -1.99255,1.99255 -1.10047,0 -1.99256,-0.89209 -1.99256,-1.99255 0,-1.10048 0.89209,-1.99256 1.99256,-1.99256 1.10048,0 1.99255,0.89208 1.99255,1.99256 z"
       style="fill:#ff0000;fill-opacity:1;fill-rule:nonzero;stroke:#ff0000;stroke-width:0.3985;stroke-linecap:butt;stroke-linejoin:miter;stroke-miterlimit:10;stroke-dasharray:none;stroke-opacity:1"
       transform="matrix(1.3333333,0,0,-1.3333333,35.68,223.732)" />
    <path
       id="path29"
       d="m 72.14473,18.6225 c 0,1.10046 -0.89207,1.99255 -1.99255,1.99255 -1.10047,0 -1.99256,-0.89209 -1.99256,-1.99255 0,-1.10048 0.89209,-1.99256 1.99256,-1.99256 1.10048,0 1.99255,0.89208 1.99255,1.99256 z"
       style="fill:#ff0000;fill-opacity:1;fill-rule:nonzero;stroke:#ff0000;stroke-width:0.3985;stroke-linecap:butt;stroke-linejoin:miter;stroke-miterlimit:10;stroke-dasharray:none;stroke-opacity:1"
       transform="matrix(1.3333333,0,0,-1.3333333,35.68,223.732)" />
    <path
       id="path30"
       d="m 77.54106,18.6225 c 0,1.10046 -0.89209,1.99255 -1.99255,1.99255 -1.10048,0 -1.99256,-0.89209 -1.99256,-1.99255 0,-1.10048 0.89208,-1.99256 1.99256,-1.99256 1.10046,0 1.99255,0.89208 1.99255,1.99256 z"
       style="fill:#ff0000;fill-opacity:1;fill-rule:nonzero;stroke:#ff0000;stroke-width:0.3985;stroke-linecap:butt;stroke-linejoin:miter;stroke-miterlimit:10;stroke-dasharray:none;stroke-opacity:1"
       transform="matrix(1.3333333,0,0,-1.3333333,35.68,223.732)" />
    <path
       id="path31"
       d="m 77.54106,18.6225 c 0,1.10046 -0.89209,1.99255 -1.99255,1.99255 -1.10048,0 -1.99256,-0.89209 -1.99256,-1.99255 0,-1.10048 0.89208,-1.99256 1.99256,-1.99256 1.10046,0 1.99255,0.89208 1.99255,1.99256 z"
       style="fill:#ff0000;fill-opacity:1;fill-rule:nonzero;stroke:#ff0000;stroke-width:0.3985;stroke-linecap:butt;stroke-linejoin:miter;stroke-miterlimit:10;stroke-dasharray:none;stroke-opacity:1"
       transform="matrix(1.3333333,0,0,-1.3333333,35.68,223.732)" />
    <path
       id="path32"
       d="m 82.93738,18.6225 c 0,1.10046 -0.89208,1.99255 -1.99256,1.99255 -1.10046,0 -1.99255,-0.89209 -1.99255,-1.99255 0,-1.10048 0.89209,-1.99256 1.99255,-1.99256 1.10048,0 1.99256,0.89208 1.99256,1.99256 z"
       style="fill:#ff0000;fill-opacity:1;fill-rule:nonzero;stroke:#ff0000;stroke-width:0.3985;stroke-linecap:butt;stroke-linejoin:miter;stroke-miterlimit:10;stroke-dasharray:none;stroke-opacity:1"
       transform="matrix(1.3333333,0,0,-1.3333333,35.68,223.732)" />
    <path
       id="path33"
       d="m 82.93738,18.6225 c 0,1.10046 -0.89208,1.99255 -1.99256,1.99255 -1.10046,0 -1.99255,-0.89209 -1.99255,-1.99255 0,-1.10048 0.89209,-1.99256 1.99255,-1.99256 1.10048,0 1.99256,0.89208 1.99256,1.99256 z"
       style="fill:#ff0000;fill-opacity:1;fill-rule:nonzero;stroke:#ff0000;stroke-width:0.3985;stroke-linecap:butt;stroke-linejoin:miter;stroke-miterlimit:10;stroke-dasharray:none;stroke-opacity:1"
       transform="matrix(1.3333333,0,0,-1.3333333,35.68,223.732)" />
    <path
       id="path34"
       d="m 88.33371,18.6225 c 0,1.10046 -0.89209,1.99255 -1.99255,1.99255 -1.10048,0 -1.99256,-0.89209 -1.99256,-1.99255 0,-1.10048 0.89208,-1.99256 1.99256,-1.99256 1.10046,0 1.99255,0.89208 1.99255,1.99256 z"
       style="fill:#ff0000;fill-opacity:1;fill-rule:nonzero;stroke:#ff0000;stroke-width:0.3985;stroke-linecap:butt;stroke-linejoin:miter;stroke-miterlimit:10;stroke-dasharray:none;stroke-opacity:1"
       transform="matrix(1.3333333,0,0,-1.3333333,35.68,223.732)" />
    <path
       id="path35"
       d="m 88.33371,18.6225 c 0,1.10046 -0.89209,1.99255 -1.99255,1.99255 -1.10048,0 -1.99256,-0.89209 -1.99256,-1.99255 0,-1.10048 0.89208,-1.99256 1.99256,-1.99256 1.10046,0 1.99255,0.89208 1.99255,1.99256 z"
       style="fill:#ff0000;fill-opacity:1;fill-rule:nonzero;stroke:#ff0000;stroke-width:0.3985;stroke-linecap:butt;stroke-linejoin:miter;stroke-miterlimit:10;stroke-dasharray:none;stroke-opacity:1"
       transform="matrix(1.3333333,0,0,-1.3333333,35.68,223.732)" />
    <path
       id="path36"
       d="m 93.73003,18.6225 c 0,1.10046 -0.89209,1.99255 -1.99256,1.99255 -1.10047,0 -1.99255,-0.89209 -1.99255,-1.99255 0,-1.10048 0.89208,-1.99256 1.99255,-1.99256 1.10047,0 1.99256,0.89208 1.99256,1.99256 z"
       style="fill:#ff0000;fill-opacity:1;fill-rule:nonzero;stroke:#ff0000;stroke-width:0.3985;stroke-linecap:butt;stroke-linejoin:miter;stroke-miterlimit:10;stroke-dasharray:none;stroke-opacity:1"
       transform="matrix(1.3333333,0,0,-1.3333333,35.68,223.732)" />
    <path
       id="path37"
       d="m 93.73003,18.6225 c 0,1.10046 -0.89209,1.99255 -1.99256,1.99255 -1.10047,0 -1.99255,-0.89209 -1.99255,-1.99255 0,-1.10048 0.89208,-1.99256 1.99255,-1.99256 1.10047,0 1.99256,0.89208 1.99256,1.99256 z"
       style="fill:#ff0000;fill-opacity:1;fill-rule:nonzero;stroke:#ff0000;stroke-width:0.3985;stroke-linecap:butt;stroke-linejoin:miter;stroke-miterlimit:10;stroke-dasharray:none;stroke-opacity:1"
       transform="matrix(1.3333333,0,0,-1.3333333,35.68,223.732)" />
    <path
       id="path38"
       d="m 99.12634,18.6225 c 0,1.10046 -0.89207,1.99255 -1.99255,1.99255 -1.10046,0 -1.99255,-0.89209 -1.99255,-1.99255 0,-1.10048 0.89209,-1.99256 1.99255,-1.99256 1.10048,0 1.99255,0.89208 1.99255,1.99256 z"
       style="fill:#ff0000;fill-opacity:1;fill-rule:nonzero;stroke:#ff0000;stroke-width:0.3985;stroke-linecap:butt;stroke-linejoin:miter;stroke-miterlimit:10;stroke-dasharray:none;stroke-opacity:1"
       transform="matrix(1.3333333,0,0,-1.3333333,35.68,223.732)" />
    <path
       id="path39"
       d="m 99.12634,18.6225 c 0,1.10046 -0.89207,1.99255 -1.99255,1.99255 -1.10046,0 -1.99255,-0.89209 -1.99255,-1.99255 0,-1.10048 0.89209,-1.99256 1.99255,-1.99256 1.10048,0 1.99255,0.89208 1.99255,1.99256 z"
       style="fill:#ff0000;fill-opacity:1;fill-rule:nonzero;stroke:#ff0000;stroke-width:0.3985;stroke-linecap:butt;stroke-linejoin:miter;stroke-miterlimit:10;stroke-dasharray:none;stroke-opacity:1"
       transform="matrix(1.3333333,0,0,-1.3333333,35.68,223.732)" />
    <path
       id="path40"
       d="m 104.52267,18.6225 c 0,1.10046 -0.89209,1.99255 -1.99255,1.99255 -1.10048,0 -1.99255,-0.89209 -1.99255,-1.99255 0,-1.10048 0.89207,-1.99256 1.99255,-1.99256 1.10046,0 1.99255,0.89208 1.99255,1.99256 z"
       style="fill:#ff0000;fill-opacity:1;fill-rule:nonzero;stroke:#ff0000;stroke-width:0.3985;stroke-linecap:butt;stroke-linejoin:miter;stroke-miterlimit:10;stroke-dasharray:none;stroke-opacity:1"
       transform="matrix(1.3333333,0,0,-1.3333333,35.68,223.732)" />
    <path
       id="path41"
       d="m 104.52267,18.6225 c 0,1.10046 -0.89209,1.99255 -1.99255,1.99255 -1.10048,0 -1.99255,-0.89209 -1.99255,-1.99255 0,-1.10048 0.89207,-1.99256 1.99255,-1.99256 1.10046,0 1.99255,0.89208 1.99255,1.99256 z"
       style="fill:#ff0000;fill-opacity:1;fill-rule:nonzero;stroke:#ff0000;stroke-width:0.3985;stroke-linecap:butt;stroke-linejoin:miter;stroke-miterlimit:10;stroke-dasharray:none;stroke-opacity:1"
       transform="matrix(1.3333333,0,0,-1.3333333,35.68,223.732)" />
    <path
       id="path42"
       d="m 109.91899,18.6225 c 0,1.10046 -0.89207,1.99255 -1.99255,1.99255 -1.10047,0 -1.99256,-0.89209 -1.99256,-1.99255 0,-1.10048 0.89209,-1.99256 1.99256,-1.99256 1.10048,0 1.99255,0.89208 1.99255,1.99256 z"
       style="fill:#ff0000;fill-opacity:1;fill-rule:nonzero;stroke:#ff0000;stroke-width:0.3985;stroke-linecap:butt;stroke-linejoin:miter;stroke-miterlimit:10;stroke-dasharray:none;stroke-opacity:1"
       transform="matrix(1.3333333,0,0,-1.3333333,35.68,223.732)" />
    <path
       id="path43"
       d="m 109.91899,18.6225 c 0,1.10046 -0.89207,1.99255 -1.99255,1.99255 -1.10047,0 -1.99256,-0.89209 -1.99256,-1.99255 0,-1.10048 0.89209,-1.99256 1.99256,-1.99256 1.10048,0 1.99255,0.89208 1.99255,1.99256 z"
       style="fill:#ff0000;fill-opacity:1;fill-rule:nonzero;stroke:#ff0000;stroke-width:0.3985;stroke-linecap:butt;stroke-linejoin:miter;stroke-miterlimit:10;stroke-dasharray:none;stroke-opacity:1"
       transform="matrix(1.3333333,0,0,-1.3333333,35.68,223.732)" />
    <path
       id="path44"
       d="m 115.3153,18.6225 c 0,1.10046 -0.89207,1.99255 -1.99255,1.99255 -1.10046,0 -1.99255,-0.89209 -1.99255,-1.99255 0,-1.10048 0.89209,-1.99256 1.99255,-1.99256 1.10048,0 1.99255,0.89208 1.99255,1.99256 z"
       style="fill:#ff0000;fill-opacity:1;fill-rule:nonzero;stroke:#ff0000;stroke-width:0.3985;stroke-linecap:butt;stroke-linejoin:miter;stroke-miterlimit:10;stroke-dasharray:none;stroke-opacity:1"
       transform="matrix(1.3333333,0,0,-1.3333333,35.68,223.732)" />
    <path
       id="path45"
       d="m 115.3153,18.6225 c 0,1.10046 -0.89207,1.99255 -1.99255,1.99255 -1.10046,0 -1.99255,-0.89209 -1.99255,-1.99255 0,-1.10048 0.89209,-1.99256 1.99255,-1.99256 1.10048,0 1.99255,0.89208 1.99255,1.99256 z"
       style="fill:#ff0000;fill-opacity:1;fill-rule:nonzero;stroke:#ff0000;stroke-width:0.3985;stroke-linecap:butt;stroke-linejoin:miter;stroke-miterlimit:10;stroke-dasharray:none;stroke-opacity:1"
       transform="matrix(1.3333333,0,0,-1.3333333,35.68,223.732)" />
    <path
       id="path46"
       d="m 120.71164,18.6225 c 0,1.10046 -0.89209,1.99255 -1.99255,1.99255 -1.10049,0 -1.99256,-0.89209 -1.99256,-1.99255 0,-1.10048 0.89207,-1.99256 1.99256,-1.99256 1.10046,0 1.99255,0.89208 1.99255,1.99256 z"
       style="fill:#ff0000;fill-opacity:1;fill-rule:nonzero;stroke:#ff0000;stroke-width:0.3985;stroke-linecap:butt;stroke-linejoin:miter;stroke-miterlimit:10;stroke-dasharray:none;stroke-opacity:1"
       transform="matrix(1.3333333,0,0,-1.3333333,35.68,223.732)" />
    <path
       id="path47"
       d="m 120.71164,18.6225 c 0,1.10046 -0.89209,1.99255 -1.99255,1.99255 -1.10049,0 -1.99256,-0.89209 -1.99256,-1.99255 0,-1.10048 0.89207,-1.99256 1.99256,-1.99256 1.10046,0 1.99255,0.89208 1.99255,1.99256 z"
       style="fill:#ff0000;fill-opacity:1;fill-rule:nonzero;stroke:#ff0000;stroke-width:0.3985;stroke-linecap:butt;stroke-linejoin:miter;stroke-miterlimit:10;stroke-dasharray:none;stroke-opacity:1"
       transform="matrix(1.3333333,0,0,-1.3333333,35.68,223.732)" />
    <path
       id="path48"
       d="m 126.10796,18.6225 c 0,1.10046 -0.89208,1.99255 -1.99256,1.99255 -1.10046,0 -1.99255,-0.89209 -1.99255,-1.99255 0,-1.10048 0.89209,-1.99256 1.99255,-1.99256 1.10048,0 1.99256,0.89208 1.99256,1.99256 z"
       style="fill:#ff0000;fill-opacity:1;fill-rule:nonzero;stroke:#ff0000;stroke-width:0.3985;stroke-linecap:butt;stroke-linejoin:miter;stroke-miterlimit:10;stroke-dasharray:none;stroke-opacity:1"
       transform="matrix(1.3333333,0,0,-1.3333333,35.68,223.732)" />
    <path
       id="path49"
       d="m 126.10796,18.6225 c 0,1.10046 -0.89208,1.99255 -1.99256,1.99255 -1.10046,0 -1.99255,-0.89209 -1.99255,-1.99255 0,-1.10048 0.89209,-1.99256 1.99255,-1.99256 1.10048,0 1.99256,0.89208 1.99256,1.99256 z"
       style="fill:#ff0000;fill-opacity:1;fill-rule:nonzero;stroke:#ff0000;stroke-width:0.3985;stroke-linecap:butt;stroke-linejoin:miter;stroke-miterlimit:10;stroke-dasharray:none;stroke-opacity:1"
       transform="matrix(1.3333333,0,0,-1.3333333,35.68,223.732)" />
    <path
       id="path50"
       d="m 131.50429,18.6225 c 0,1.10046 -0.89209,1.99255 -1.99256,1.99255 -1.10048,0 -1.99255,-0.89209 -1.99255,-1.99255 0,-1.10048 0.89207,-1.99256 1.99255,-1.99256 1.10047,0 1.99256,0.89208 1.99256,1.99256 z"
       style="fill:#ff0000;fill-opacity:1;fill-rule:nonzero;stroke:#ff0000;stroke-width:0.3985;stroke-linecap:butt;stroke-linejoin:miter;stroke-miterlimit:10;stroke-dasharray:none;stroke-opacity:1"
       transform="matrix(1.3333333,0,0,-1.3333333,35.68,223.732)" />
    <path
       id="path51"
       d="m 131.50429,18.6225 c 0,1.10046 -0.89209,1.99255 -1.99256,1.99255 -1.10048,0 -1.99255,-0.89209 -1.99255,-1.99255 0,-1.10048 0.89207,-1.99256 1.99255,-1.99256 1.10047,0 1.99256,0.89208 1.99256,1.99256 z"
       style="fill:#ff0000;fill-opacity:1;fill-rule:nonzero;stroke:#ff0000;stroke-width:0.3985;stroke-linecap:butt;stroke-linejoin:miter;stroke-miterlimit:10;stroke-dasharray:none;stroke-opacity:1"
       transform="matrix(1.3333333,0,0,-1.3333333,35.68,223.732)" />
    <path
       id="path52"
       d="m 136.9006,18.6225 c 0,1.10046 -0.89209,1.99255 -1.99255,1.99255 -1.10048,0 -1.99255,-0.89209 -1.99255,-1.99255 0,-1.10048 0.89207,-1.99256 1.99255,-1.99256 1.10046,0 1.99255,0.89208 1.99255,1.99256 z"
       style="fill:#ff0000;fill-opacity:1;fill-rule:nonzero;stroke:#ff0000;stroke-width:0.3985;stroke-linecap:butt;stroke-linejoin:miter;stroke-miterlimit:10;stroke-dasharray:none;stroke-opacity:1"
       transform="matrix(1.3333333,0,0,-1.3333333,35.68,223.732)" />
    <path
       id="path53"
       d="m 136.9006,18.6225 c 0,1.10046 -0.89209,1.99255 -1.99255,1.99255 -1.10048,0 -1.99255,-0.89209 -1.99255,-1.99255 0,-1.10048 0.89207,-1.99256 1.99255,-1.99256 1.10046,0 1.99255,0.89208 1.99255,1.99256 z"
       style="fill:#ff0000;fill-opacity:1;fill-rule:nonzero;stroke:#ff0000;stroke-width:0.3985;stroke-linecap:butt;stroke-linejoin:miter;stroke-miterlimit:10;stroke-dasharray:none;stroke-opacity:1"
       transform="matrix(1.3333333,0,0,-1.3333333,35.68,223.732)" />
    <path
       id="path54"
       d="m 142.29692,18.6225 c 0,1.10046 -0.89207,1.99255 -1.99255,1.99255 -1.10047,0 -1.99256,-0.89209 -1.99256,-1.99255 0,-1.10048 0.89209,-1.99256 1.99256,-1.99256 1.10048,0 1.99255,0.89208 1.99255,1.99256 z"
       style="fill:#ff0000;fill-opacity:1;fill-rule:nonzero;stroke:#ff0000;stroke-width:0.3985;stroke-linecap:butt;stroke-linejoin:miter;stroke-miterlimit:10;stroke-dasharray:none;stroke-opacity:1"
       transform="matrix(1.3333333,0,0,-1.3333333,35.68,223.732)" />
    <path
       id="path55"
       d="m 142.29692,18.6225 c 0,1.10046 -0.89207,1.99255 -1.99255,1.99255 -1.10047,0 -1.99256,-0.89209 -1.99256,-1.99255 0,-1.10048 0.89209,-1.99256 1.99256,-1.99256 1.10048,0 1.99255,0.89208 1.99255,1.99256 z"
       style="fill:#ff0000;fill-opacity:1;fill-rule:nonzero;stroke:#ff0000;stroke-width:0.3985;stroke-linecap:butt;stroke-linejoin:miter;stroke-miterlimit:10;stroke-dasharray:none;stroke-opacity:1"
       transform="matrix(1.3333333,0,0,-1.3333333,35.68,223.732)" />
    <path
       id="path56"
       d="m 147.69325,18.6225 c 0,1.10046 -0.89209,1.99255 -1.99255,1.99255 -1.10048,0 -1.99255,-0.89209 -1.99255,-1.99255 0,-1.10048 0.89207,-1.99256 1.99255,-1.99256 1.10046,0 1.99255,0.89208 1.99255,1.99256 z"
       style="fill:#ff0000;fill-opacity:1;fill-rule:nonzero;stroke:#ff0000;stroke-width:0.3985;stroke-linecap:butt;stroke-linejoin:miter;stroke-miterlimit:10;stroke-dasharray:none;stroke-opacity:1"
       transform="matrix(1.3333333,0,0,-1.3333333,35.68,223.732)" />
    <path
       id="path57"
       d="m 147.69325,18.6225 c 0,1.10046 -0.89209,1.99255 -1.99255,1.99255 -1.10048,0 -1.99255,-0.89209 -1.99255,-1.99255 0,-1.10048 0.89207,-1.99256 1.99255,-1.99256 1.10046,0 1.99255,0.89208 1.99255,1.99256 z"
       style="fill:#ff0000;fill-opacity:1;fill-rule:nonzero;stroke:#ff0000;stroke-width:0.3985;stroke-linecap:butt;stroke-linejoin:miter;stroke-miterlimit:10;stroke-dasharray:none;stroke-opacity:1"
       transform="matrix(1.3333333,0,0,-1.3333333,35.68,223.732)" />
    <path
       id="path58"
       d="m 153.08957,18.6225 c 0,1.10046 -0.89207,1.99255 -1.99255,1.99255 -1.10047,0 -1.99256,-0.89209 -1.99256,-1.99255 0,-1.10048 0.89209,-1.99256 1.99256,-1.99256 1.10048,0 1.99255,0.89208 1.99255,1.99256 z"
       style="fill:#ff0000;fill-opacity:1;fill-rule:nonzero;stroke:#ff0000;stroke-width:0.3985;stroke-linecap:butt;stroke-linejoin:miter;stroke-miterlimit:10;stroke-dasharray:none;stroke-opacity:1"
       transform="matrix(1.3333333,0,0,-1.3333333,35.68,223.732)" />
    <path
       id="path59"
       d="m 153.08957,18.6225 c 0,1.10046 -0.89207,1.99255 -1.99255,1.99255 -1.10047,0 -1.99256,-0.89209 -1.99256,-1.99255 0,-1.10048 0.89209,-1.99256 1.99256,-1.99256 1.10048,0 1.99255,0.89208 1.99255,1.99256 z"
       style="fill:#ff0000;fill-opacity:1;fill-rule:nonzero;stroke:#ff0000;stroke-width:0.3985;stroke-linecap:butt;stroke-linejoin:miter;stroke-miterlimit:10;stroke-dasharray:none;stroke-opacity:1"
       transform="matrix(1.3333333,0,0,-1.3333333,35.68,223.732)" />
    <path
       id="path60"
       d="m 158.48589,18.6225 c 0,1.10046 -0.89208,1.99255 -1.99256,1.99255 -1.10046,0 -1.99255,-0.89209 -1.99255,-1.99255 0,-1.10048 0.89209,-1.99256 1.99255,-1.99256 1.10048,0 1.99256,0.89208 1.99256,1.99256 z"
       style="fill:#ff0000;fill-opacity:1;fill-rule:nonzero;stroke:#ff0000;stroke-width:0.3985;stroke-linecap:butt;stroke-linejoin:miter;stroke-miterlimit:10;stroke-dasharray:none;stroke-opacity:1"
       transform="matrix(1.3333333,0,0,-1.3333333,35.68,223.732)" />
    <path
       id="path61"
       d="m 158.48589,18.6225 c 0,1.10046 -0.89208,1.99255 -1.99256,1.99255 -1.10046,0 -1.99255,-0.89209 -1.99255,-1.99255 0,-1.10048 0.89209,-1.99256 1.99255,-1.99256 1.10048,0 1.99256,0.89208 1.99256,1.99256 z"
       style="fill:#ff0000;fill-opacity:1;fill-rule:nonzero;stroke:#ff0000;stroke-width:0.3985;stroke-linecap:butt;stroke-linejoin:miter;stroke-miterlimit:10;stroke-dasharray:none;stroke-opacity:1"
       transform="matrix(1.3333333,0,0,-1.3333333,35.68,223.732)" />
    <path
       id="path62"
       d="m 163.88222,18.6225 c 0,1.10046 -0.89209,1.99255 -1.99256,1.99255 -1.10048,0 -1.99255,-0.89209 -1.99255,-1.99255 0,-1.10048 0.89207,-1.99256 1.99255,-1.99256 1.10047,0 1.99256,0.89208 1.99256,1.99256 z"
       style="fill:#ff0000;fill-opacity:1;fill-rule:nonzero;stroke:#ff0000;stroke-width:0.3985;stroke-linecap:butt;stroke-linejoin:miter;stroke-miterlimit:10;stroke-dasharray:none;stroke-opacity:1"
       transform="matrix(1.3333333,0,0,-1.3333333,35.68,223.732)" />
    <path
       id="path63"
       d="m 163.88222,18.6225 c 0,1.10046 -0.89209,1.99255 -1.99256,1.99255 -1.10048,0 -1.99255,-0.89209 -1.99255,-1.99255 0,-1.10048 0.89207,-1.99256 1.99255,-1.99256 1.10047,0 1.99256,0.89208 1.99256,1.99256 z"
       style="fill:#ff0000;fill-opacity:1;fill-rule:nonzero;stroke:#ff0000;stroke-width:0.3985;stroke-linecap:butt;stroke-linejoin:miter;stroke-miterlimit:10;stroke-dasharray:none;stroke-opacity:1"
       transform="matrix(1.3333333,0,0,-1.3333333,35.68,223.732)" />
    <path
       id="path64"
       d="m 169.27853,18.6225 c 0,1.10046 -0.89207,1.99255 -1.99255,1.99255 -1.10046,0 -1.99255,-0.89209 -1.99255,-1.99255 0,-1.10048 0.89209,-1.99256 1.99255,-1.99256 1.10048,0 1.99255,0.89208 1.99255,1.99256 z"
       style="fill:#ff0000;fill-opacity:1;fill-rule:nonzero;stroke:#ff0000;stroke-width:0.3985;stroke-linecap:butt;stroke-linejoin:miter;stroke-miterlimit:10;stroke-dasharray:none;stroke-opacity:1"
       transform="matrix(1.3333333,0,0,-1.3333333,35.68,223.732)" />
    <path
       id="path65"
       d="m 169.27853,18.6225 c 0,1.10046 -0.89207,1.99255 -1.99255,1.99255 -1.10046,0 -1.99255,-0.89209 -1.99255,-1.99255 0,-1.10048 0.89209,-1.99256 1.99255,-1.99256 1.10048,0 1.99255,0.89208 1.99255,1.99256 z"
       style="fill:#ff0000;fill-opacity:1;fill-rule:nonzero;stroke:#ff0000;stroke-width:0.3985;stroke-linecap:butt;stroke-linejoin:miter;stroke-miterlimit:10;stroke-dasharray:none;stroke-opacity:1"
       transform="matrix(1.3333333,0,0,-1.3333333,35.68,223.732)" />
    <path
       id="path66"
       d="m 174.67487,18.6225 c 0,1.10046 -0.89209,1.99255 -1.99256,1.99255 -1.10048,0 -1.99255,-0.89209 -1.99255,-1.99255 0,-1.10048 0.89207,-1.99256 1.99255,-1.99256 1.10047,0 1.99256,0.89208 1.99256,1.99256 z"
       style="fill:#ff0000;fill-opacity:1;fill-rule:nonzero;stroke:#ff0000;stroke-width:0.3985;stroke-linecap:butt;stroke-linejoin:miter;stroke-miterlimit:10;stroke-dasharray:none;stroke-opacity:1"
       transform="matrix(1.3333333,0,0,-1.3333333,35.68,223.732)" />
    <path
       id="path67"
       d="m 174.67487,18.6225 c 0,1.10046 -0.89209,1.99255 -1.99256,1.99255 -1.10048,0 -1.99255,-0.89209 -1.99255,-1.99255 0,-1.10048 0.89207,-1.99256 1.99255,-1.99256 1.10047,0 1.99256,0.89208 1.99256,1.99256 z"
       style="fill:#ff0000;fill-opacity:1;fill-rule:nonzero;stroke:#ff0000;stroke-width:0.3985;stroke-linecap:butt;stroke-linejoin:miter;stroke-miterlimit:10;stroke-dasharray:none;stroke-opacity:1"
       transform="matrix(1.3333333,0,0,-1.3333333,35.68,223.732)" />
    <path
       id="path68"
       d="m 180.07118,18.6225 c 0,1.10046 -0.89208,1.99255 -1.99255,1.99255 -1.10048,0 -1.99256,-0.89209 -1.99256,-1.99255 0,-1.10048 0.89208,-1.99256 1.99256,-1.99256 1.10047,0 1.99255,0.89208 1.99255,1.99256 z"
       style="fill:#ff0000;fill-opacity:1;fill-rule:nonzero;stroke:#ff0000;stroke-width:0.3985;stroke-linecap:butt;stroke-linejoin:miter;stroke-miterlimit:10;stroke-dasharray:none;stroke-opacity:1"
       transform="matrix(1.3333333,0,0,-1.3333333,35.68,223.732)" />
    <path
       id="path69"
       d="m 180.07118,18.6225 c 0,1.10046 -0.89208,1.99255 -1.99255,1.99255 -1.10048,0 -1.99256,-0.89209 -1.99256,-1.99255 0,-1.10048 0.89208,-1.99256 1.99256,-1.99256 1.10047,0 1.99255,0.89208 1.99255,1.99256 z"
       style="fill:#ff0000;fill-opacity:1;fill-rule:nonzero;stroke:#ff0000;stroke-width:0.3985;stroke-linecap:butt;stroke-linejoin:miter;stroke-miterlimit:10;stroke-dasharray:none;stroke-opacity:1"
       transform="matrix(1.3333333,0,0,-1.3333333,35.68,223.732)" />
    <path
       id="path70"
       d="m 185.4675,18.6225 c 0,1.10046 -0.89208,1.99255 -1.99255,1.99255 -1.10047,0 -1.99256,-0.89209 -1.99256,-1.99255 0,-1.10048 0.89209,-1.99256 1.99256,-1.99256 1.10047,0 1.99255,0.89208 1.99255,1.99256 z"
       style="fill:#ff0000;fill-opacity:1;fill-rule:nonzero;stroke:#ff0000;stroke-width:0.3985;stroke-linecap:butt;stroke-linejoin:miter;stroke-miterlimit:10;stroke-dasharray:none;stroke-opacity:1"
       transform="matrix(1.3333333,0,0,-1.3333333,35.68,223.732)" />
    <path
       id="path71"
       d="m 185.4675,18.6225 c 0,1.10046 -0.89208,1.99255 -1.99255,1.99255 -1.10047,0 -1.99256,-0.89209 -1.99256,-1.99255 0,-1.10048 0.89209,-1.99256 1.99256,-1.99256 1.10047,0 1.99255,0.89208 1.99255,1.99256 z"
       style="fill:#ff0000;fill-opacity:1;fill-rule:nonzero;stroke:#ff0000;stroke-width:0.3985;stroke-linecap:butt;stroke-linejoin:miter;stroke-miterlimit:10;stroke-dasharray:none;stroke-opacity:1"
       transform="matrix(1.3333333,0,0,-1.3333333,35.68,223.732)" />
    <path
       id="path72"
       d="m 21.58528,18.6225 h 0.87212 0.87214 0.87214 0.87212 l 0.87214,10e-6 h 0.87213 l 0.87215,3e-5 0.87211,5e-5 0.87215,9e-5 0.87212,1.7e-4 0.87213,3e-4 0.87214,6.1e-4 0.87213,0.0011 0.87214,0.0019 0.87213,0.0033 0.87211,0.0055 0.87215,0.0093 0.87213,0.01535 0.87214,0.02483 0.87212,0.03955 0.87215,0.0618 0.87213,0.09498 0.87212,0.14342 0.87214,0.21271 0.87214,0.30995 0.87214,0.44363 0.87212,0.62366 0.87213,0.86086 0.87215,1.16667 0.87213,1.55206 0.87213,2.02628 0.87213,2.59532 0.87212,3.26047 0.87215,4.01577 0.87212,4.84711 0.87215,5.73036 0.87212,6.63103 0.87213,7.50447 0.87214,8.29761 0.87212,8.95163 0.87215,9.40602 0.87213,9.60362 0.87213,9.49611 0.87213,9.04935 0.87213,8.24856 0.87213,7.10117 0.87214,5.6386 0.87213,3.91543 0.87215,2.00617 h 0.87211 l 0.87215,-2.00617 0.87213,-3.91543 0.87213,-5.6386 0.87213,-7.10117 0.87213,-8.24856 0.87213,-9.04935 0.87213,-9.49611 0.87214,-9.60362 0.87214,-9.40602 0.87212,-8.95163 0.87215,-8.29761 0.87213,-7.50447 0.87211,-6.63103 0.87215,-5.73036 0.87213,-4.84711 0.87215,-4.01577 0.87211,-3.26047 0.87215,-2.59532 0.87212,-2.02628 0.87213,-1.55206 0.87214,-1.16667 0.87214,-0.86086 0.87213,-0.62366 0.87213,-0.44363 0.87213,-0.30995 0.87215,-0.21271 0.87211,-0.14342 0.87215,-0.09498 0.87213,-0.0618 0.87212,-0.03955 0.87214,-0.02483 0.87213,-0.01535 0.87215,-0.0093 0.87212,-0.0055 0.87213,-0.0033 0.87213,-0.0019 0.87213,-0.0011 0.87215,-6.1e-4 0.87213,-3e-4 0.87211,-1.7e-4 0.87215,-9e-5 0.87212,-5e-5 0.87214,-3e-5 h 0.87214 l 0.87213,-10e-6 h 0.87213 0.87213 0.87214 0.87214"
       style="fill:none;stroke:#000000;stroke-width:1.19553;stroke-linecap:butt;stroke-linejoin:miter;stroke-miterlimit:10;stroke-dasharray:none;stroke-opacity:1"
       transform="matrix(1.3333333,0,0,-1.3333333,35.68,223.732)"
       clip-path="url(#clipPath73)" />
    <path
       id="path74"
       d="m 64.75586,83.68633 2.58841,-4.48325 h -5.17682 z"
       style="fill:#0000ff;fill-opacity:1;fill-rule:nonzero;stroke:#0000ff;stroke-width:0.3985;stroke-linecap:butt;stroke-linejoin:miter;stroke-miterlimit:10;stroke-dasharray:none;stroke-opacity:1"
       transform="matrix(1.3333333,0,0,-1.3333333,35.68,223.732)" />
    <path
       id="path75"
       d="m 141.61076,147.79353 h 48.57138 v 16.3811 h -48.57138 z"
       style="fill:#ffffff;fill-opacity:1;fill-rule:nonzero;stroke:none"
       transform="matrix(1.3333333,0,0,-1.3333333,35.68,223.732)" />
    <path
       id="path76"
       d="m 0,0 h 8.50412 8.50414"
       style="fill:none;stroke:#808080;stroke-width:1.19553;stroke-linecap:butt;stroke-linejoin:miter;stroke-miterlimit:10;stroke-dasharray:none;stroke-opacity:1"
       transform="matrix(1.3333333,0,0,-1.3333333,229.27333,15.756)" />
    <path
       id="path77"
       d="m 0.9381875,-6.9254609 v 6.91406246 h 0.890625 V -6.9254609 Z m 2.4023438,5.625 c -0.023437,0.2578125 -0.1289063,0.51562496 -0.1289063,0.76171871 0,0.17578125 0.7148438,0.4453125 1.078125,0.57421875 0.375,0.10546875 0.7617188,0.17578125 1.1484375,0.17578125 0.9257813,0 2.0742188,-0.4921875 2.2851563,-1.85156251 0.011719,-0.070312 0.011719,-0.1523437 0.011719,-0.2226562 0,-0.9257813 -0.609375,-1.7109375 -1.4414062,-2.0039063 -0.7617188,-0.2695312 -1.8984375,-0.1875 -2.1679688,-1.21875 C 4.1139688,-5.1559297 4.10225,-5.2379609 4.10225,-5.3082734 v -0.082031 c 0.082031,-0.6796875 0.7382813,-1.0546875 1.3359375,-1.0898437 h 0.1523438 c 0.5273437,0 1.03125,0.1523437 1.4648437,0.4921875 0.058594,0.046875 0.1289063,0.1054687 0.1992188,0.1523437 0.023437,-0.246094 0.1289062,-0.5039065 0.1289062,-0.761719 0,-0.058594 -0.035156,-0.082031 -0.082031,-0.1054688 l -0.1875,-0.09375 c -0.4570313,-0.234375 -0.9726563,-0.3398437 -1.5,-0.3398437 -0.9492188,0 -2.296875,0.5273437 -2.296875,1.96875 0,0.9257812 0.7382812,1.6171875 1.5703125,1.8632812 0.7734375,0.2109375 2.0625,0.2578125 2.0625,1.5234375 v 0.070312 c -0.058594,0.6796875 -0.65625,1.18359376 -1.3359375,1.23046876 H 5.4967813 c -0.703125,0 -1.3710938,-0.24609375 -1.9335938,-0.65624996 -0.070312,-0.046875 -0.140625,-0.1171875 -0.2226562,-0.164062 z m 5.9208984,-5.625 v 6.91406246 H 10.116898 V -3.1637422 h 1.441407 l 0.128906,0.011719 1.722656,2.90624996 0.164063,0.2109375 h 0.867187 L 12.460648,-3.2692109 c 0.855469,-0.1875 1.710938,-0.8789063 1.710938,-1.8046875 v -0.070312 c -0.07031,-1.078125 -1.21875,-1.6757813 -2.214844,-1.7695313 -0.140625,-0.011719 -0.28125,-0.011719 -0.421875,-0.011719 z m 0.8554683,3.1523437 v -2.5898437 h 1.136719 c 0.726563,0 1.675781,0.035156 2.050781,0.9257812 0.03516,0.1171875 0.05859,0.234375 0.05859,0.3515625 0,0.5742188 -0.433594,0.9960938 -0.972656,1.1835938 -0.363281,0.1289062 -0.75,0.1289062 -1.136719,0.1289062 z m 5.554688,-3.1171875 v 6.87890626 h 0.890625 V -3.1520234 h 3 v -0.5976563 h -3 v -2.5078125 h 3.410156 v -0.6328125 z m 0,0"
       style="fill:#000000;fill-opacity:1;fill-rule:nonzero;stroke:none"
       aria-label="ISRF"
       transform="matrix(1.3333333,0,0,1.3333333,255.40533,19.370667)" />
  </g>
</svg>
